<mxfile host="app.diagrams.net" agent="Mozilla/5.0 (Windows NT 10.0; Win64; x64) AppleWebKit/537.36 (KHTML, like Gecko) Chrome/127.0.0.0 Safari/537.36" version="24.7.7">
  <diagram name="Page-1" id="9H_g9kAqsXyCxntlrRIn">
    <mxGraphModel dx="1430" dy="1857" grid="1" gridSize="10" guides="1" tooltips="1" connect="1" arrows="1" fold="1" page="1" pageScale="1" pageWidth="850" pageHeight="1100" math="0" shadow="0">
      <root>
        <mxCell id="0" />
        <mxCell id="1" parent="0" />
        <mxCell id="vTDVaDkW4czHKNU96Y0x-6" value="" style="rounded=1;whiteSpace=wrap;html=1;absoluteArcSize=1;arcSize=14;strokeWidth=2;" vertex="1" parent="1">
          <mxGeometry x="200" y="210" width="570" height="330" as="geometry" />
        </mxCell>
        <mxCell id="vTDVaDkW4czHKNU96Y0x-7" value="node pools" style="rounded=1;whiteSpace=wrap;html=1;absoluteArcSize=1;arcSize=14;strokeWidth=2;fillColor=#dae8fc;strokeColor=#6c8ebf;" vertex="1" parent="1">
          <mxGeometry x="100" y="210" width="100" height="40" as="geometry" />
        </mxCell>
        <mxCell id="vTDVaDkW4czHKNU96Y0x-8" value="jobs" style="rounded=1;whiteSpace=wrap;html=1;absoluteArcSize=1;arcSize=14;strokeWidth=2;" vertex="1" parent="1">
          <mxGeometry x="100" y="250" width="100" height="40" as="geometry" />
        </mxCell>
        <mxCell id="vTDVaDkW4czHKNU96Y0x-9" value="template" style="rounded=1;whiteSpace=wrap;html=1;absoluteArcSize=1;arcSize=14;strokeWidth=2;" vertex="1" parent="1">
          <mxGeometry x="100" y="290" width="100" height="40" as="geometry" />
        </mxCell>
        <mxCell id="vTDVaDkW4czHKNU96Y0x-10" value="customerized template" style="rounded=1;whiteSpace=wrap;html=1;absoluteArcSize=1;arcSize=14;strokeWidth=2;" vertex="1" parent="1">
          <mxGeometry x="100" y="330" width="100" height="40" as="geometry" />
        </mxCell>
        <mxCell id="vTDVaDkW4czHKNU96Y0x-11" value="node pool 1&amp;nbsp;" style="rounded=1;whiteSpace=wrap;html=1;absoluteArcSize=1;arcSize=14;strokeWidth=2;" vertex="1" parent="1">
          <mxGeometry x="260" y="340" width="100" height="40" as="geometry" />
        </mxCell>
        <mxCell id="vTDVaDkW4czHKNU96Y0x-12" value="node pool 3" style="rounded=1;whiteSpace=wrap;html=1;absoluteArcSize=1;arcSize=14;strokeWidth=2;" vertex="1" parent="1">
          <mxGeometry x="510" y="340" width="100" height="40" as="geometry" />
        </mxCell>
        <mxCell id="vTDVaDkW4czHKNU96Y0x-13" value="node pool 2" style="rounded=1;whiteSpace=wrap;html=1;absoluteArcSize=1;arcSize=14;strokeWidth=2;" vertex="1" parent="1">
          <mxGeometry x="385" y="340" width="100" height="40" as="geometry" />
        </mxCell>
        <mxCell id="vTDVaDkW4czHKNU96Y0x-15" value="search" style="whiteSpace=wrap;html=1;align=center;" vertex="1" parent="1">
          <mxGeometry x="260" y="250" width="350" height="20" as="geometry" />
        </mxCell>
        <mxCell id="vTDVaDkW4czHKNU96Y0x-16" value="create" style="html=1;whiteSpace=wrap;" vertex="1" parent="1">
          <mxGeometry x="620" y="250" width="60" height="20" as="geometry" />
        </mxCell>
        <mxCell id="vTDVaDkW4czHKNU96Y0x-17" value="" style="rounded=1;whiteSpace=wrap;html=1;absoluteArcSize=1;arcSize=14;strokeWidth=2;" vertex="1" parent="1">
          <mxGeometry x="200" y="590" width="570" height="330" as="geometry" />
        </mxCell>
        <mxCell id="vTDVaDkW4czHKNU96Y0x-18" value="node pools" style="rounded=1;whiteSpace=wrap;html=1;absoluteArcSize=1;arcSize=14;strokeWidth=2;" vertex="1" parent="1">
          <mxGeometry x="100" y="590" width="100" height="40" as="geometry" />
        </mxCell>
        <mxCell id="vTDVaDkW4czHKNU96Y0x-19" value="jobs" style="rounded=1;whiteSpace=wrap;html=1;absoluteArcSize=1;arcSize=14;strokeWidth=2;fillColor=#dae8fc;strokeColor=#6c8ebf;" vertex="1" parent="1">
          <mxGeometry x="100" y="630" width="100" height="40" as="geometry" />
        </mxCell>
        <mxCell id="vTDVaDkW4czHKNU96Y0x-20" value="template" style="rounded=1;whiteSpace=wrap;html=1;absoluteArcSize=1;arcSize=14;strokeWidth=2;" vertex="1" parent="1">
          <mxGeometry x="100" y="670" width="100" height="40" as="geometry" />
        </mxCell>
        <mxCell id="vTDVaDkW4czHKNU96Y0x-21" value="customerized template" style="rounded=1;whiteSpace=wrap;html=1;absoluteArcSize=1;arcSize=14;strokeWidth=2;" vertex="1" parent="1">
          <mxGeometry x="100" y="710" width="100" height="40" as="geometry" />
        </mxCell>
        <mxCell id="vTDVaDkW4czHKNU96Y0x-25" value="search" style="whiteSpace=wrap;html=1;align=center;" vertex="1" parent="1">
          <mxGeometry x="260" y="630" width="390" height="20" as="geometry" />
        </mxCell>
        <mxCell id="vTDVaDkW4czHKNU96Y0x-26" value="create" style="html=1;whiteSpace=wrap;" vertex="1" parent="1">
          <mxGeometry x="660" y="630" width="60" height="20" as="geometry" />
        </mxCell>
        <mxCell id="vTDVaDkW4czHKNU96Y0x-97" value="job1" style="whiteSpace=wrap;html=1;align=center;" vertex="1" parent="1">
          <mxGeometry x="260" y="680" width="460" height="20" as="geometry" />
        </mxCell>
        <mxCell id="vTDVaDkW4czHKNU96Y0x-98" value="job2" style="whiteSpace=wrap;html=1;align=center;" vertex="1" parent="1">
          <mxGeometry x="260" y="700" width="460" height="20" as="geometry" />
        </mxCell>
        <mxCell id="vTDVaDkW4czHKNU96Y0x-99" value="job3" style="whiteSpace=wrap;html=1;align=center;" vertex="1" parent="1">
          <mxGeometry x="260" y="720" width="460" height="20" as="geometry" />
        </mxCell>
        <mxCell id="vTDVaDkW4czHKNU96Y0x-100" value="job4" style="whiteSpace=wrap;html=1;align=center;" vertex="1" parent="1">
          <mxGeometry x="260" y="740" width="460" height="20" as="geometry" />
        </mxCell>
        <mxCell id="vTDVaDkW4czHKNU96Y0x-103" value="双击可以进入job history" style="html=1;whiteSpace=wrap;strokeWidth=0;" vertex="1" parent="1">
          <mxGeometry x="760" y="680" width="150" height="20" as="geometry" />
        </mxCell>
        <mxCell id="vTDVaDkW4czHKNU96Y0x-104" value="" style="rounded=1;whiteSpace=wrap;html=1;absoluteArcSize=1;arcSize=14;strokeWidth=2;" vertex="1" parent="1">
          <mxGeometry x="180" y="1960" width="570" height="330" as="geometry" />
        </mxCell>
        <mxCell id="vTDVaDkW4czHKNU96Y0x-105" value="node pools" style="rounded=1;whiteSpace=wrap;html=1;absoluteArcSize=1;arcSize=14;strokeWidth=2;" vertex="1" parent="1">
          <mxGeometry x="80" y="1960" width="100" height="40" as="geometry" />
        </mxCell>
        <mxCell id="vTDVaDkW4czHKNU96Y0x-106" value="jobs" style="rounded=1;whiteSpace=wrap;html=1;absoluteArcSize=1;arcSize=14;strokeWidth=2;fillColor=#dae8fc;strokeColor=#6c8ebf;" vertex="1" parent="1">
          <mxGeometry x="80" y="2000" width="100" height="40" as="geometry" />
        </mxCell>
        <mxCell id="vTDVaDkW4czHKNU96Y0x-107" value="template" style="rounded=1;whiteSpace=wrap;html=1;absoluteArcSize=1;arcSize=14;strokeWidth=2;" vertex="1" parent="1">
          <mxGeometry x="80" y="2040" width="100" height="40" as="geometry" />
        </mxCell>
        <mxCell id="vTDVaDkW4czHKNU96Y0x-108" value="customerized template" style="rounded=1;whiteSpace=wrap;html=1;absoluteArcSize=1;arcSize=14;strokeWidth=2;" vertex="1" parent="1">
          <mxGeometry x="80" y="2080" width="100" height="40" as="geometry" />
        </mxCell>
        <mxCell id="vTDVaDkW4czHKNU96Y0x-109" value="search" style="whiteSpace=wrap;html=1;align=center;" vertex="1" parent="1">
          <mxGeometry x="240" y="2000" width="390" height="20" as="geometry" />
        </mxCell>
        <mxCell id="vTDVaDkW4czHKNU96Y0x-110" value="create" style="html=1;whiteSpace=wrap;" vertex="1" parent="1">
          <mxGeometry x="640" y="2000" width="60" height="20" as="geometry" />
        </mxCell>
        <mxCell id="vTDVaDkW4czHKNU96Y0x-111" value="job history 1" style="whiteSpace=wrap;html=1;align=center;" vertex="1" parent="1">
          <mxGeometry x="240" y="2080" width="460" height="20" as="geometry" />
        </mxCell>
        <mxCell id="vTDVaDkW4czHKNU96Y0x-112" value="job history&amp;nbsp;2" style="whiteSpace=wrap;html=1;align=center;" vertex="1" parent="1">
          <mxGeometry x="240" y="2100" width="460" height="20" as="geometry" />
        </mxCell>
        <mxCell id="vTDVaDkW4czHKNU96Y0x-113" value="job history&amp;nbsp;3" style="whiteSpace=wrap;html=1;align=center;" vertex="1" parent="1">
          <mxGeometry x="240" y="2120" width="460" height="20" as="geometry" />
        </mxCell>
        <mxCell id="vTDVaDkW4czHKNU96Y0x-114" value="job history&amp;nbsp;4" style="whiteSpace=wrap;html=1;align=center;" vertex="1" parent="1">
          <mxGeometry x="240" y="2140" width="460" height="20" as="geometry" />
        </mxCell>
        <mxCell id="vTDVaDkW4czHKNU96Y0x-115" value="job details" style="html=1;whiteSpace=wrap;strokeWidth=0;" vertex="1" parent="1">
          <mxGeometry x="225" y="1970" width="120" height="20" as="geometry" />
        </mxCell>
        <mxCell id="vTDVaDkW4czHKNU96Y0x-116" value="refered Template" style="strokeWidth=2;html=1;shape=mxgraph.flowchart.terminator;whiteSpace=wrap;" vertex="1" parent="1">
          <mxGeometry x="240" y="2030" width="145" height="40" as="geometry" />
        </mxCell>
        <mxCell id="vTDVaDkW4czHKNU96Y0x-117" value="" style="rounded=1;whiteSpace=wrap;html=1;absoluteArcSize=1;arcSize=14;strokeWidth=2;" vertex="1" parent="1">
          <mxGeometry x="175" y="2330" width="570" height="330" as="geometry" />
        </mxCell>
        <mxCell id="vTDVaDkW4czHKNU96Y0x-118" value="node pools" style="rounded=1;whiteSpace=wrap;html=1;absoluteArcSize=1;arcSize=14;strokeWidth=2;" vertex="1" parent="1">
          <mxGeometry x="75" y="2330" width="100" height="40" as="geometry" />
        </mxCell>
        <mxCell id="vTDVaDkW4czHKNU96Y0x-119" value="jobs" style="rounded=1;whiteSpace=wrap;html=1;absoluteArcSize=1;arcSize=14;strokeWidth=2;" vertex="1" parent="1">
          <mxGeometry x="75" y="2370" width="100" height="40" as="geometry" />
        </mxCell>
        <mxCell id="vTDVaDkW4czHKNU96Y0x-120" value="template" style="rounded=1;whiteSpace=wrap;html=1;absoluteArcSize=1;arcSize=14;strokeWidth=2;fillColor=#dae8fc;strokeColor=#6c8ebf;" vertex="1" parent="1">
          <mxGeometry x="75" y="2410" width="100" height="40" as="geometry" />
        </mxCell>
        <mxCell id="vTDVaDkW4czHKNU96Y0x-121" value="customerized template" style="rounded=1;whiteSpace=wrap;html=1;absoluteArcSize=1;arcSize=14;strokeWidth=2;" vertex="1" parent="1">
          <mxGeometry x="75" y="2450" width="100" height="40" as="geometry" />
        </mxCell>
        <mxCell id="vTDVaDkW4czHKNU96Y0x-122" value="search" style="whiteSpace=wrap;html=1;align=center;" vertex="1" parent="1">
          <mxGeometry x="225" y="2370" width="400" height="20" as="geometry" />
        </mxCell>
        <mxCell id="vTDVaDkW4czHKNU96Y0x-123" value="create" style="html=1;whiteSpace=wrap;" vertex="1" parent="1">
          <mxGeometry x="635" y="2370" width="60" height="20" as="geometry" />
        </mxCell>
        <mxCell id="vTDVaDkW4czHKNU96Y0x-124" value="teamplate 1" style="whiteSpace=wrap;html=1;align=center;" vertex="1" parent="1">
          <mxGeometry x="230" y="2420" width="460" height="20" as="geometry" />
        </mxCell>
        <mxCell id="vTDVaDkW4czHKNU96Y0x-125" value="teamplate&amp;nbsp;2" style="whiteSpace=wrap;html=1;align=center;" vertex="1" parent="1">
          <mxGeometry x="230" y="2440" width="460" height="20" as="geometry" />
        </mxCell>
        <mxCell id="vTDVaDkW4czHKNU96Y0x-126" value="teamplate&amp;nbsp;3" style="whiteSpace=wrap;html=1;align=center;" vertex="1" parent="1">
          <mxGeometry x="230" y="2460" width="460" height="20" as="geometry" />
        </mxCell>
        <mxCell id="vTDVaDkW4czHKNU96Y0x-127" value="teamplate&amp;nbsp;4" style="whiteSpace=wrap;html=1;align=center;" vertex="1" parent="1">
          <mxGeometry x="230" y="2480" width="460" height="20" as="geometry" />
        </mxCell>
        <mxCell id="vTDVaDkW4czHKNU96Y0x-128" value="template" style="html=1;whiteSpace=wrap;strokeWidth=0;" vertex="1" parent="1">
          <mxGeometry x="220" y="2340" width="120" height="20" as="geometry" />
        </mxCell>
        <mxCell id="vTDVaDkW4czHKNU96Y0x-131" value="" style="rounded=1;whiteSpace=wrap;html=1;absoluteArcSize=1;arcSize=14;strokeWidth=2;" vertex="1" parent="1">
          <mxGeometry x="174" y="2730" width="570" height="330" as="geometry" />
        </mxCell>
        <mxCell id="vTDVaDkW4czHKNU96Y0x-132" value="node pools" style="rounded=1;whiteSpace=wrap;html=1;absoluteArcSize=1;arcSize=14;strokeWidth=2;" vertex="1" parent="1">
          <mxGeometry x="75" y="2730" width="100" height="40" as="geometry" />
        </mxCell>
        <mxCell id="vTDVaDkW4czHKNU96Y0x-133" value="jobs" style="rounded=1;whiteSpace=wrap;html=1;absoluteArcSize=1;arcSize=14;strokeWidth=2;" vertex="1" parent="1">
          <mxGeometry x="75" y="2770" width="100" height="40" as="geometry" />
        </mxCell>
        <mxCell id="vTDVaDkW4czHKNU96Y0x-134" value="template" style="rounded=1;whiteSpace=wrap;html=1;absoluteArcSize=1;arcSize=14;strokeWidth=2;fillColor=#dae8fc;strokeColor=#6c8ebf;" vertex="1" parent="1">
          <mxGeometry x="75" y="2810" width="100" height="40" as="geometry" />
        </mxCell>
        <mxCell id="vTDVaDkW4czHKNU96Y0x-135" value="customerized template" style="rounded=1;whiteSpace=wrap;html=1;absoluteArcSize=1;arcSize=14;strokeWidth=2;" vertex="1" parent="1">
          <mxGeometry x="75" y="2850" width="100" height="40" as="geometry" />
        </mxCell>
        <mxCell id="vTDVaDkW4czHKNU96Y0x-136" value="template name" style="whiteSpace=wrap;html=1;align=center;" vertex="1" parent="1">
          <mxGeometry x="220" y="2800" width="90" height="20" as="geometry" />
        </mxCell>
        <mxCell id="vTDVaDkW4czHKNU96Y0x-137" value="" style="html=1;whiteSpace=wrap;" vertex="1" parent="1">
          <mxGeometry x="320" y="2800" width="165" height="20" as="geometry" />
        </mxCell>
        <mxCell id="vTDVaDkW4czHKNU96Y0x-142" value="template details" style="html=1;whiteSpace=wrap;strokeWidth=0;" vertex="1" parent="1">
          <mxGeometry x="220" y="2740" width="120" height="20" as="geometry" />
        </mxCell>
        <mxCell id="vTDVaDkW4czHKNU96Y0x-143" value="双击createv可以进入创建详情页" style="html=1;whiteSpace=wrap;strokeWidth=0;" vertex="1" parent="1">
          <mxGeometry x="705" y="2370" width="120" height="20" as="geometry" />
        </mxCell>
        <mxCell id="vTDVaDkW4czHKNU96Y0x-144" value="双击每个template可以进入template details页" style="html=1;whiteSpace=wrap;strokeWidth=0;" vertex="1" parent="1">
          <mxGeometry x="700" y="2440" width="120" height="20" as="geometry" />
        </mxCell>
        <mxCell id="vTDVaDkW4czHKNU96Y0x-150" value="" style="html=1;whiteSpace=wrap;strokeWidth=0;opacity=0;fillColor=#f8cecc;strokeColor=#b85450;" vertex="1" parent="1">
          <mxGeometry x="480" y="2916" width="200" height="40" as="geometry" />
        </mxCell>
        <mxCell id="vTDVaDkW4czHKNU96Y0x-151" value="network" style="whiteSpace=wrap;html=1;align=center;" vertex="1" parent="1">
          <mxGeometry x="240" y="2866" width="50" height="20" as="geometry" />
        </mxCell>
        <mxCell id="vTDVaDkW4czHKNU96Y0x-153" value="Ubuntu&amp;nbsp;" style="whiteSpace=wrap;html=1;align=center;" vertex="1" parent="1">
          <mxGeometry x="220" y="2835" width="70" height="20" as="geometry" />
        </mxCell>
        <mxCell id="vTDVaDkW4czHKNU96Y0x-154" value="" style="html=1;whiteSpace=wrap;" vertex="1" parent="1">
          <mxGeometry x="300" y="2835" width="185" height="20" as="geometry" />
        </mxCell>
        <mxCell id="vTDVaDkW4czHKNU96Y0x-163" value="cuda" style="whiteSpace=wrap;html=1;align=center;" vertex="1" parent="1">
          <mxGeometry x="240" y="2902" width="50" height="20" as="geometry" />
        </mxCell>
        <mxCell id="vTDVaDkW4czHKNU96Y0x-164" value="" style="html=1;whiteSpace=wrap;" vertex="1" parent="1">
          <mxGeometry x="300" y="2902" width="185" height="20" as="geometry" />
        </mxCell>
        <mxCell id="vTDVaDkW4czHKNU96Y0x-165" value="fabric" style="whiteSpace=wrap;html=1;align=center;" vertex="1" parent="1">
          <mxGeometry x="240" y="2932" width="50" height="20" as="geometry" />
        </mxCell>
        <mxCell id="vTDVaDkW4czHKNU96Y0x-166" value="" style="html=1;whiteSpace=wrap;" vertex="1" parent="1">
          <mxGeometry x="300" y="2932" width="185" height="20" as="geometry" />
        </mxCell>
        <mxCell id="vTDVaDkW4czHKNU96Y0x-167" value="cudnn" style="whiteSpace=wrap;html=1;align=center;" vertex="1" parent="1">
          <mxGeometry x="240" y="2962" width="50" height="20" as="geometry" />
        </mxCell>
        <mxCell id="vTDVaDkW4czHKNU96Y0x-168" value="" style="html=1;whiteSpace=wrap;" vertex="1" parent="1">
          <mxGeometry x="300" y="2962" width="185" height="20" as="geometry" />
        </mxCell>
        <mxCell id="vTDVaDkW4czHKNU96Y0x-170" value="" style="verticalLabelPosition=bottom;verticalAlign=top;html=1;shape=mxgraph.flowchart.on-page_reference;" vertex="1" parent="1">
          <mxGeometry x="307.5" y="2871" width="10" height="10" as="geometry" />
        </mxCell>
        <mxCell id="vTDVaDkW4czHKNU96Y0x-172" value="Infiniband" style="html=1;whiteSpace=wrap;strokeWidth=0;" vertex="1" parent="1">
          <mxGeometry x="317.5" y="2866" width="65" height="20" as="geometry" />
        </mxCell>
        <mxCell id="vTDVaDkW4czHKNU96Y0x-175" value="RoCE" style="html=1;whiteSpace=wrap;strokeWidth=0;" vertex="1" parent="1">
          <mxGeometry x="398.75" y="2866" width="42.5" height="20" as="geometry" />
        </mxCell>
        <mxCell id="vTDVaDkW4czHKNU96Y0x-176" value="这里是check box" style="html=1;whiteSpace=wrap;strokeWidth=0;opacity=0;" vertex="1" parent="1">
          <mxGeometry x="447" y="2868.5" width="120" height="15" as="geometry" />
        </mxCell>
        <mxCell id="vTDVaDkW4czHKNU96Y0x-178" value="create" style="html=1;whiteSpace=wrap;" vertex="1" parent="1">
          <mxGeometry x="425" y="3020" width="60" height="20" as="geometry" />
        </mxCell>
        <mxCell id="vTDVaDkW4czHKNU96Y0x-179" value="被引用的template, 双击可以进入template detail 页面" style="html=1;whiteSpace=wrap;strokeWidth=0;" vertex="1" parent="1">
          <mxGeometry x="350" y="1920" width="120" height="20" as="geometry" />
        </mxCell>
        <mxCell id="vTDVaDkW4czHKNU96Y0x-181" value="" style="endArrow=classic;html=1;rounded=0;entryX=0.795;entryY=0.032;entryDx=0;entryDy=0;entryPerimeter=0;dashed=1;" edge="1" parent="1" target="vTDVaDkW4czHKNU96Y0x-116">
          <mxGeometry width="50" height="50" relative="1" as="geometry">
            <mxPoint x="385" y="1950" as="sourcePoint" />
            <mxPoint x="365" y="2010" as="targetPoint" />
          </mxGeometry>
        </mxCell>
        <mxCell id="vTDVaDkW4czHKNU96Y0x-183" value="node pool" style="strokeWidth=2;html=1;shape=mxgraph.flowchart.terminator;whiteSpace=wrap;fillColor=#f8cecc;strokeColor=#b85450;" vertex="1" parent="1">
          <mxGeometry x="392.5" y="2030" width="145" height="40" as="geometry" />
        </mxCell>
        <mxCell id="vTDVaDkW4czHKNU96Y0x-184" value="" style="rounded=1;whiteSpace=wrap;html=1;absoluteArcSize=1;arcSize=14;strokeWidth=2;" vertex="1" parent="1">
          <mxGeometry x="185" y="3150" width="570" height="330" as="geometry" />
        </mxCell>
        <mxCell id="vTDVaDkW4czHKNU96Y0x-185" value="node pools" style="rounded=1;whiteSpace=wrap;html=1;absoluteArcSize=1;arcSize=14;strokeWidth=2;" vertex="1" parent="1">
          <mxGeometry x="85" y="3150" width="100" height="40" as="geometry" />
        </mxCell>
        <mxCell id="vTDVaDkW4czHKNU96Y0x-186" value="jobs" style="rounded=1;whiteSpace=wrap;html=1;absoluteArcSize=1;arcSize=14;strokeWidth=2;" vertex="1" parent="1">
          <mxGeometry x="85" y="3190" width="100" height="40" as="geometry" />
        </mxCell>
        <UserObject label="template" link="http://test.damodel.net/login" id="vTDVaDkW4czHKNU96Y0x-187">
          <mxCell style="rounded=1;whiteSpace=wrap;html=1;absoluteArcSize=1;arcSize=14;strokeWidth=2;" vertex="1" parent="1">
            <mxGeometry x="85" y="3230" width="100" height="40" as="geometry" />
          </mxCell>
        </UserObject>
        <mxCell id="vTDVaDkW4czHKNU96Y0x-188" value="customerized template" style="rounded=1;whiteSpace=wrap;html=1;absoluteArcSize=1;arcSize=14;strokeWidth=2;fillColor=#dae8fc;strokeColor=#6c8ebf;" vertex="1" parent="1">
          <mxGeometry x="85" y="3270" width="100" height="40" as="geometry" />
        </mxCell>
        <mxCell id="vTDVaDkW4czHKNU96Y0x-189" value="template" style="whiteSpace=wrap;html=1;align=center;" vertex="1" parent="1">
          <mxGeometry x="230" y="3220" width="70" height="20" as="geometry" />
        </mxCell>
        <mxCell id="vTDVaDkW4czHKNU96Y0x-190" value="" style="html=1;whiteSpace=wrap;" vertex="1" parent="1">
          <mxGeometry x="310" y="3220" width="185" height="20" as="geometry" />
        </mxCell>
        <mxCell id="vTDVaDkW4czHKNU96Y0x-191" value="customerized template" style="html=1;whiteSpace=wrap;strokeWidth=0;" vertex="1" parent="1">
          <mxGeometry x="230" y="3160" width="135" height="20" as="geometry" />
        </mxCell>
        <mxCell id="vTDVaDkW4czHKNU96Y0x-192" value="这里是dropdown list，用于选择已经创建的template" style="html=1;whiteSpace=wrap;strokeWidth=0;opacity=0;" vertex="1" parent="1">
          <mxGeometry x="455" y="3160" width="200" height="20" as="geometry" />
        </mxCell>
        <mxCell id="vTDVaDkW4czHKNU96Y0x-193" value="action" style="whiteSpace=wrap;html=1;align=center;" vertex="1" parent="1">
          <mxGeometry x="230" y="3250" width="70" height="20" as="geometry" />
        </mxCell>
        <mxCell id="vTDVaDkW4czHKNU96Y0x-195" value="" style="html=1;whiteSpace=wrap;" vertex="1" parent="1">
          <mxGeometry x="310" y="3250" width="185" height="20" as="geometry" />
        </mxCell>
        <mxCell id="vTDVaDkW4czHKNU96Y0x-207" value="create" style="html=1;whiteSpace=wrap;" vertex="1" parent="1">
          <mxGeometry x="435" y="3420" width="60" height="20" as="geometry" />
        </mxCell>
        <mxCell id="vTDVaDkW4czHKNU96Y0x-214" value="" style="endArrow=classic;html=1;rounded=0;exitX=0.25;exitY=1;exitDx=0;exitDy=0;entryX=1;entryY=0.25;entryDx=0;entryDy=0;dashed=1;" edge="1" parent="1" source="vTDVaDkW4czHKNU96Y0x-192" target="vTDVaDkW4czHKNU96Y0x-190">
          <mxGeometry width="50" height="50" relative="1" as="geometry">
            <mxPoint x="555" y="3270" as="sourcePoint" />
            <mxPoint x="605" y="3220" as="targetPoint" />
          </mxGeometry>
        </mxCell>
        <mxCell id="vTDVaDkW4czHKNU96Y0x-215" value="" style="verticalLabelPosition=bottom;verticalAlign=top;html=1;shadow=0;dashed=0;strokeWidth=1;shape=mxgraph.ios.iDeleteApp;fillColor=#cccccc;fillColor2=#000000;strokeColor=#ffffff;sketch=0;" vertex="1" parent="1">
          <mxGeometry x="505" y="3222.5" width="15" height="15" as="geometry" />
        </mxCell>
        <mxCell id="vTDVaDkW4czHKNU96Y0x-216" value="每个选项都可以删除" style="text;html=1;align=center;verticalAlign=middle;whiteSpace=wrap;rounded=0;" vertex="1" parent="1">
          <mxGeometry x="520" y="3215" width="125" height="30" as="geometry" />
        </mxCell>
        <mxCell id="vTDVaDkW4czHKNU96Y0x-217" value="" style="verticalLabelPosition=bottom;verticalAlign=top;html=1;shadow=0;dashed=0;strokeWidth=1;shape=mxgraph.ios.iDeleteApp;fillColor=#cccccc;fillColor2=#000000;strokeColor=#ffffff;sketch=0;" vertex="1" parent="1">
          <mxGeometry x="505" y="3252.5" width="15" height="15" as="geometry" />
        </mxCell>
        <mxCell id="vTDVaDkW4czHKNU96Y0x-219" value="" style="verticalLabelPosition=bottom;verticalAlign=top;html=1;shadow=0;dashed=0;strokeWidth=1;shape=mxgraph.ios.iAddIcon;fillColor=#7AdF78;fillColor2=#1A9917;strokeColor=#ffffff;sketch=0;" vertex="1" parent="1">
          <mxGeometry x="480" y="3282.5" width="15" height="15" as="geometry" />
        </mxCell>
        <mxCell id="vTDVaDkW4czHKNU96Y0x-220" value="点击此处可以添加动作" style="text;html=1;align=center;verticalAlign=middle;whiteSpace=wrap;rounded=0;" vertex="1" parent="1">
          <mxGeometry x="510" y="3275" width="125" height="30" as="geometry" />
        </mxCell>
        <mxCell id="vTDVaDkW4czHKNU96Y0x-221" value="" style="rounded=1;whiteSpace=wrap;html=1;absoluteArcSize=1;arcSize=14;strokeWidth=2;" vertex="1" parent="1">
          <mxGeometry x="195" y="1010" width="570" height="330" as="geometry" />
        </mxCell>
        <mxCell id="vTDVaDkW4czHKNU96Y0x-222" value="node pools" style="rounded=1;whiteSpace=wrap;html=1;absoluteArcSize=1;arcSize=14;strokeWidth=2;" vertex="1" parent="1">
          <mxGeometry x="95" y="1010" width="100" height="40" as="geometry" />
        </mxCell>
        <mxCell id="vTDVaDkW4czHKNU96Y0x-223" value="jobs" style="rounded=1;whiteSpace=wrap;html=1;absoluteArcSize=1;arcSize=14;strokeWidth=2;fillColor=#dae8fc;strokeColor=#6c8ebf;" vertex="1" parent="1">
          <mxGeometry x="95" y="1050" width="100" height="40" as="geometry" />
        </mxCell>
        <mxCell id="vTDVaDkW4czHKNU96Y0x-224" value="template" style="rounded=1;whiteSpace=wrap;html=1;absoluteArcSize=1;arcSize=14;strokeWidth=2;" vertex="1" parent="1">
          <mxGeometry x="95" y="1090" width="100" height="40" as="geometry" />
        </mxCell>
        <mxCell id="vTDVaDkW4czHKNU96Y0x-225" value="customerized template" style="rounded=1;whiteSpace=wrap;html=1;absoluteArcSize=1;arcSize=14;strokeWidth=2;" vertex="1" parent="1">
          <mxGeometry x="95" y="1130" width="100" height="40" as="geometry" />
        </mxCell>
        <mxCell id="vTDVaDkW4czHKNU96Y0x-226" value="search" style="whiteSpace=wrap;html=1;align=center;" vertex="1" parent="1">
          <mxGeometry x="255" y="1050" width="465" height="20" as="geometry" />
        </mxCell>
        <mxCell id="vTDVaDkW4czHKNU96Y0x-232" value="Job History" style="html=1;whiteSpace=wrap;strokeWidth=0;" vertex="1" parent="1">
          <mxGeometry x="225" y="1020" width="135" height="20" as="geometry" />
        </mxCell>
        <mxCell id="vTDVaDkW4czHKNU96Y0x-233" value="" style="shape=table;startSize=0;container=1;collapsible=0;childLayout=tableLayout;fontSize=16;" vertex="1" parent="1">
          <mxGeometry x="255" y="1110" width="465" height="179.99999999999932" as="geometry" />
        </mxCell>
        <mxCell id="vTDVaDkW4czHKNU96Y0x-234" value="" style="shape=tableRow;horizontal=0;startSize=0;swimlaneHead=0;swimlaneBody=0;strokeColor=inherit;top=0;left=0;bottom=0;right=0;collapsible=0;dropTarget=0;fillColor=none;points=[[0,0.5],[1,0.5]];portConstraint=eastwest;fontSize=16;" vertex="1" parent="vTDVaDkW4czHKNU96Y0x-233">
          <mxGeometry width="465" height="30" as="geometry" />
        </mxCell>
        <mxCell id="vTDVaDkW4czHKNU96Y0x-235" value="node pool" style="shape=partialRectangle;html=1;whiteSpace=wrap;connectable=0;strokeColor=inherit;overflow=hidden;fillColor=none;top=0;left=0;bottom=0;right=0;pointerEvents=1;fontSize=16;" vertex="1" parent="vTDVaDkW4czHKNU96Y0x-234">
          <mxGeometry width="95" height="30" as="geometry">
            <mxRectangle width="95" height="30" as="alternateBounds" />
          </mxGeometry>
        </mxCell>
        <mxCell id="vTDVaDkW4czHKNU96Y0x-236" value="executed time" style="shape=partialRectangle;html=1;whiteSpace=wrap;connectable=0;strokeColor=inherit;overflow=hidden;fillColor=none;top=0;left=0;bottom=0;right=0;pointerEvents=1;fontSize=16;" vertex="1" parent="vTDVaDkW4czHKNU96Y0x-234">
          <mxGeometry x="95" width="110" height="30" as="geometry">
            <mxRectangle width="110" height="30" as="alternateBounds" />
          </mxGeometry>
        </mxCell>
        <mxCell id="vTDVaDkW4czHKNU96Y0x-237" value="result(output, logs)" style="shape=partialRectangle;html=1;whiteSpace=wrap;connectable=0;strokeColor=inherit;overflow=hidden;fillColor=none;top=0;left=0;bottom=0;right=0;pointerEvents=1;fontSize=16;" vertex="1" parent="vTDVaDkW4czHKNU96Y0x-234">
          <mxGeometry x="205" width="260" height="30" as="geometry">
            <mxRectangle width="260" height="30" as="alternateBounds" />
          </mxGeometry>
        </mxCell>
        <mxCell id="vTDVaDkW4czHKNU96Y0x-238" value="" style="shape=tableRow;horizontal=0;startSize=0;swimlaneHead=0;swimlaneBody=0;strokeColor=inherit;top=0;left=0;bottom=0;right=0;collapsible=0;dropTarget=0;fillColor=none;points=[[0,0.5],[1,0.5]];portConstraint=eastwest;fontSize=16;" vertex="1" parent="vTDVaDkW4czHKNU96Y0x-233">
          <mxGeometry y="30" width="465" height="30" as="geometry" />
        </mxCell>
        <mxCell id="vTDVaDkW4czHKNU96Y0x-239" value="" style="shape=partialRectangle;html=1;whiteSpace=wrap;connectable=0;strokeColor=inherit;overflow=hidden;fillColor=none;top=0;left=0;bottom=0;right=0;pointerEvents=1;fontSize=16;" vertex="1" parent="vTDVaDkW4czHKNU96Y0x-238">
          <mxGeometry width="95" height="30" as="geometry">
            <mxRectangle width="95" height="30" as="alternateBounds" />
          </mxGeometry>
        </mxCell>
        <mxCell id="vTDVaDkW4czHKNU96Y0x-240" value="" style="shape=partialRectangle;html=1;whiteSpace=wrap;connectable=0;strokeColor=inherit;overflow=hidden;fillColor=none;top=0;left=0;bottom=0;right=0;pointerEvents=1;fontSize=16;" vertex="1" parent="vTDVaDkW4czHKNU96Y0x-238">
          <mxGeometry x="95" width="110" height="30" as="geometry">
            <mxRectangle width="110" height="30" as="alternateBounds" />
          </mxGeometry>
        </mxCell>
        <mxCell id="vTDVaDkW4czHKNU96Y0x-241" value="" style="shape=partialRectangle;html=1;whiteSpace=wrap;connectable=0;strokeColor=inherit;overflow=hidden;fillColor=none;top=0;left=0;bottom=0;right=0;pointerEvents=1;fontSize=16;" vertex="1" parent="vTDVaDkW4czHKNU96Y0x-238">
          <mxGeometry x="205" width="260" height="30" as="geometry">
            <mxRectangle width="260" height="30" as="alternateBounds" />
          </mxGeometry>
        </mxCell>
        <mxCell id="vTDVaDkW4czHKNU96Y0x-242" value="" style="shape=tableRow;horizontal=0;startSize=0;swimlaneHead=0;swimlaneBody=0;strokeColor=inherit;top=0;left=0;bottom=0;right=0;collapsible=0;dropTarget=0;fillColor=none;points=[[0,0.5],[1,0.5]];portConstraint=eastwest;fontSize=16;" vertex="1" parent="vTDVaDkW4czHKNU96Y0x-233">
          <mxGeometry y="60" width="465" height="30" as="geometry" />
        </mxCell>
        <mxCell id="vTDVaDkW4czHKNU96Y0x-243" value="" style="shape=partialRectangle;html=1;whiteSpace=wrap;connectable=0;strokeColor=inherit;overflow=hidden;fillColor=none;top=0;left=0;bottom=0;right=0;pointerEvents=1;fontSize=16;" vertex="1" parent="vTDVaDkW4czHKNU96Y0x-242">
          <mxGeometry width="95" height="30" as="geometry">
            <mxRectangle width="95" height="30" as="alternateBounds" />
          </mxGeometry>
        </mxCell>
        <mxCell id="vTDVaDkW4czHKNU96Y0x-244" value="" style="shape=partialRectangle;html=1;whiteSpace=wrap;connectable=0;strokeColor=inherit;overflow=hidden;fillColor=none;top=0;left=0;bottom=0;right=0;pointerEvents=1;fontSize=16;" vertex="1" parent="vTDVaDkW4czHKNU96Y0x-242">
          <mxGeometry x="95" width="110" height="30" as="geometry">
            <mxRectangle width="110" height="30" as="alternateBounds" />
          </mxGeometry>
        </mxCell>
        <mxCell id="vTDVaDkW4czHKNU96Y0x-245" value="" style="shape=partialRectangle;html=1;whiteSpace=wrap;connectable=0;strokeColor=inherit;overflow=hidden;fillColor=none;top=0;left=0;bottom=0;right=0;pointerEvents=1;fontSize=16;" vertex="1" parent="vTDVaDkW4czHKNU96Y0x-242">
          <mxGeometry x="205" width="260" height="30" as="geometry">
            <mxRectangle width="260" height="30" as="alternateBounds" />
          </mxGeometry>
        </mxCell>
        <mxCell id="vTDVaDkW4czHKNU96Y0x-253" style="shape=tableRow;horizontal=0;startSize=0;swimlaneHead=0;swimlaneBody=0;strokeColor=inherit;top=0;left=0;bottom=0;right=0;collapsible=0;dropTarget=0;fillColor=none;points=[[0,0.5],[1,0.5]];portConstraint=eastwest;fontSize=16;" vertex="1" parent="vTDVaDkW4czHKNU96Y0x-233">
          <mxGeometry y="90" width="465" height="30" as="geometry" />
        </mxCell>
        <mxCell id="vTDVaDkW4czHKNU96Y0x-254" style="shape=partialRectangle;html=1;whiteSpace=wrap;connectable=0;strokeColor=inherit;overflow=hidden;fillColor=none;top=0;left=0;bottom=0;right=0;pointerEvents=1;fontSize=16;" vertex="1" parent="vTDVaDkW4czHKNU96Y0x-253">
          <mxGeometry width="95" height="30" as="geometry">
            <mxRectangle width="95" height="30" as="alternateBounds" />
          </mxGeometry>
        </mxCell>
        <mxCell id="vTDVaDkW4czHKNU96Y0x-255" style="shape=partialRectangle;html=1;whiteSpace=wrap;connectable=0;strokeColor=inherit;overflow=hidden;fillColor=none;top=0;left=0;bottom=0;right=0;pointerEvents=1;fontSize=16;" vertex="1" parent="vTDVaDkW4czHKNU96Y0x-253">
          <mxGeometry x="95" width="110" height="30" as="geometry">
            <mxRectangle width="110" height="30" as="alternateBounds" />
          </mxGeometry>
        </mxCell>
        <mxCell id="vTDVaDkW4czHKNU96Y0x-256" style="shape=partialRectangle;html=1;whiteSpace=wrap;connectable=0;strokeColor=inherit;overflow=hidden;fillColor=none;top=0;left=0;bottom=0;right=0;pointerEvents=1;fontSize=16;" vertex="1" parent="vTDVaDkW4czHKNU96Y0x-253">
          <mxGeometry x="205" width="260" height="30" as="geometry">
            <mxRectangle width="260" height="30" as="alternateBounds" />
          </mxGeometry>
        </mxCell>
        <mxCell id="vTDVaDkW4czHKNU96Y0x-257" style="shape=tableRow;horizontal=0;startSize=0;swimlaneHead=0;swimlaneBody=0;strokeColor=inherit;top=0;left=0;bottom=0;right=0;collapsible=0;dropTarget=0;fillColor=none;points=[[0,0.5],[1,0.5]];portConstraint=eastwest;fontSize=16;" vertex="1" parent="vTDVaDkW4czHKNU96Y0x-233">
          <mxGeometry y="120" width="465" height="30" as="geometry" />
        </mxCell>
        <mxCell id="vTDVaDkW4czHKNU96Y0x-258" style="shape=partialRectangle;html=1;whiteSpace=wrap;connectable=0;strokeColor=inherit;overflow=hidden;fillColor=none;top=0;left=0;bottom=0;right=0;pointerEvents=1;fontSize=16;" vertex="1" parent="vTDVaDkW4czHKNU96Y0x-257">
          <mxGeometry width="95" height="30" as="geometry">
            <mxRectangle width="95" height="30" as="alternateBounds" />
          </mxGeometry>
        </mxCell>
        <mxCell id="vTDVaDkW4czHKNU96Y0x-259" style="shape=partialRectangle;html=1;whiteSpace=wrap;connectable=0;strokeColor=inherit;overflow=hidden;fillColor=none;top=0;left=0;bottom=0;right=0;pointerEvents=1;fontSize=16;" vertex="1" parent="vTDVaDkW4czHKNU96Y0x-257">
          <mxGeometry x="95" width="110" height="30" as="geometry">
            <mxRectangle width="110" height="30" as="alternateBounds" />
          </mxGeometry>
        </mxCell>
        <mxCell id="vTDVaDkW4czHKNU96Y0x-260" style="shape=partialRectangle;html=1;whiteSpace=wrap;connectable=0;strokeColor=inherit;overflow=hidden;fillColor=none;top=0;left=0;bottom=0;right=0;pointerEvents=1;fontSize=16;" vertex="1" parent="vTDVaDkW4czHKNU96Y0x-257">
          <mxGeometry x="205" width="260" height="30" as="geometry">
            <mxRectangle width="260" height="30" as="alternateBounds" />
          </mxGeometry>
        </mxCell>
        <mxCell id="vTDVaDkW4czHKNU96Y0x-261" style="shape=tableRow;horizontal=0;startSize=0;swimlaneHead=0;swimlaneBody=0;strokeColor=inherit;top=0;left=0;bottom=0;right=0;collapsible=0;dropTarget=0;fillColor=none;points=[[0,0.5],[1,0.5]];portConstraint=eastwest;fontSize=16;" vertex="1" parent="vTDVaDkW4czHKNU96Y0x-233">
          <mxGeometry y="150" width="465" height="30" as="geometry" />
        </mxCell>
        <mxCell id="vTDVaDkW4czHKNU96Y0x-262" style="shape=partialRectangle;html=1;whiteSpace=wrap;connectable=0;strokeColor=inherit;overflow=hidden;fillColor=none;top=0;left=0;bottom=0;right=0;pointerEvents=1;fontSize=16;" vertex="1" parent="vTDVaDkW4czHKNU96Y0x-261">
          <mxGeometry width="95" height="30" as="geometry">
            <mxRectangle width="95" height="30" as="alternateBounds" />
          </mxGeometry>
        </mxCell>
        <mxCell id="vTDVaDkW4czHKNU96Y0x-263" style="shape=partialRectangle;html=1;whiteSpace=wrap;connectable=0;strokeColor=inherit;overflow=hidden;fillColor=none;top=0;left=0;bottom=0;right=0;pointerEvents=1;fontSize=16;" vertex="1" parent="vTDVaDkW4czHKNU96Y0x-261">
          <mxGeometry x="95" width="110" height="30" as="geometry">
            <mxRectangle width="110" height="30" as="alternateBounds" />
          </mxGeometry>
        </mxCell>
        <mxCell id="vTDVaDkW4czHKNU96Y0x-264" style="shape=partialRectangle;html=1;whiteSpace=wrap;connectable=0;strokeColor=inherit;overflow=hidden;fillColor=none;top=0;left=0;bottom=0;right=0;pointerEvents=1;fontSize=16;" vertex="1" parent="vTDVaDkW4czHKNU96Y0x-261">
          <mxGeometry x="205" width="260" height="30" as="geometry">
            <mxRectangle width="260" height="30" as="alternateBounds" />
          </mxGeometry>
        </mxCell>
        <mxCell id="vTDVaDkW4czHKNU96Y0x-265" value="双击可以 查看job details, job history" style="html=1;whiteSpace=wrap;strokeWidth=0;" vertex="1" parent="1">
          <mxGeometry x="730" y="1120" width="210" height="20" as="geometry" />
        </mxCell>
        <mxCell id="vTDVaDkW4czHKNU96Y0x-334" value="" style="rounded=1;whiteSpace=wrap;html=1;absoluteArcSize=1;arcSize=14;strokeWidth=2;" vertex="1" parent="1">
          <mxGeometry x="180" y="1470" width="570" height="330" as="geometry" />
        </mxCell>
        <mxCell id="vTDVaDkW4czHKNU96Y0x-335" value="node pools" style="rounded=1;whiteSpace=wrap;html=1;absoluteArcSize=1;arcSize=14;strokeWidth=2;" vertex="1" parent="1">
          <mxGeometry x="80" y="1470" width="100" height="40" as="geometry" />
        </mxCell>
        <mxCell id="vTDVaDkW4czHKNU96Y0x-336" value="jobs" style="rounded=1;whiteSpace=wrap;html=1;absoluteArcSize=1;arcSize=14;strokeWidth=2;fillColor=#dae8fc;strokeColor=#6c8ebf;" vertex="1" parent="1">
          <mxGeometry x="80" y="1510" width="100" height="40" as="geometry" />
        </mxCell>
        <mxCell id="vTDVaDkW4czHKNU96Y0x-337" value="template" style="rounded=1;whiteSpace=wrap;html=1;absoluteArcSize=1;arcSize=14;strokeWidth=2;" vertex="1" parent="1">
          <mxGeometry x="80" y="1550" width="100" height="40" as="geometry" />
        </mxCell>
        <mxCell id="vTDVaDkW4czHKNU96Y0x-338" value="customerized template" style="rounded=1;whiteSpace=wrap;html=1;absoluteArcSize=1;arcSize=14;strokeWidth=2;" vertex="1" parent="1">
          <mxGeometry x="80" y="1590" width="100" height="40" as="geometry" />
        </mxCell>
        <mxCell id="vTDVaDkW4czHKNU96Y0x-339" value="search" style="whiteSpace=wrap;html=1;align=center;" vertex="1" parent="1">
          <mxGeometry x="240" y="1510" width="465" height="20" as="geometry" />
        </mxCell>
        <mxCell id="vTDVaDkW4czHKNU96Y0x-341" value="logs，results" style="html=1;whiteSpace=wrap;strokeWidth=0;" vertex="1" parent="1">
          <mxGeometry x="210" y="1480" width="135" height="20" as="geometry" />
        </mxCell>
        <mxCell id="vTDVaDkW4czHKNU96Y0x-369" value="&lt;h1 style=&quot;margin-top: 0px;&quot;&gt;output&lt;/h1&gt;&lt;p&gt;Lorem ipsum dolor sit amet, consectetur adipisicing elit, sed do eiusmod tempor incididunt ut labore et dolore magna aliqua.&lt;/p&gt;" style="text;html=1;whiteSpace=wrap;overflow=hidden;rounded=0;" vertex="1" parent="1">
          <mxGeometry x="212.5" y="1550" width="102.5" height="120" as="geometry" />
        </mxCell>
        <mxCell id="vTDVaDkW4czHKNU96Y0x-370" value="&lt;h1 style=&quot;margin-top: 0px;&quot;&gt;logs&lt;/h1&gt;&lt;p&gt;Lorem ipsum dolor sit amet, consectetur adipisicing elit, sed do eiusmod tempor incididunt ut labore et dolore magna aliqua.&lt;/p&gt;" style="text;html=1;whiteSpace=wrap;overflow=hidden;rounded=0;" vertex="1" parent="1">
          <mxGeometry x="335" y="1550" width="370" height="230" as="geometry" />
        </mxCell>
        <mxCell id="vTDVaDkW4czHKNU96Y0x-371" value="import" style="html=1;whiteSpace=wrap;" vertex="1" parent="1">
          <mxGeometry x="685" y="250" width="60" height="20" as="geometry" />
        </mxCell>
        <mxCell id="vTDVaDkW4czHKNU96Y0x-372" value="从现有的hosts文件导入" style="text;html=1;align=center;verticalAlign=middle;whiteSpace=wrap;rounded=0;" vertex="1" parent="1">
          <mxGeometry x="760" y="245" width="130" height="30" as="geometry" />
        </mxCell>
        <mxCell id="vTDVaDkW4czHKNU96Y0x-385" value="" style="rounded=1;whiteSpace=wrap;html=1;absoluteArcSize=1;arcSize=14;strokeWidth=2;" vertex="1" parent="1">
          <mxGeometry x="195" y="-170" width="570" height="330" as="geometry" />
        </mxCell>
        <mxCell id="vTDVaDkW4czHKNU96Y0x-386" value="node pools" style="rounded=1;whiteSpace=wrap;html=1;absoluteArcSize=1;arcSize=14;strokeWidth=2;fillColor=#dae8fc;strokeColor=#6c8ebf;" vertex="1" parent="1">
          <mxGeometry x="95" y="-170" width="100" height="40" as="geometry" />
        </mxCell>
        <mxCell id="vTDVaDkW4czHKNU96Y0x-387" value="jobs" style="rounded=1;whiteSpace=wrap;html=1;absoluteArcSize=1;arcSize=14;strokeWidth=2;" vertex="1" parent="1">
          <mxGeometry x="95" y="-130" width="100" height="40" as="geometry" />
        </mxCell>
        <mxCell id="vTDVaDkW4czHKNU96Y0x-388" value="template" style="rounded=1;whiteSpace=wrap;html=1;absoluteArcSize=1;arcSize=14;strokeWidth=2;" vertex="1" parent="1">
          <mxGeometry x="95" y="-90" width="100" height="40" as="geometry" />
        </mxCell>
        <mxCell id="vTDVaDkW4czHKNU96Y0x-389" value="customerized template" style="rounded=1;whiteSpace=wrap;html=1;absoluteArcSize=1;arcSize=14;strokeWidth=2;" vertex="1" parent="1">
          <mxGeometry x="95" y="-50" width="100" height="40" as="geometry" />
        </mxCell>
        <mxCell id="vTDVaDkW4czHKNU96Y0x-393" value="search" style="whiteSpace=wrap;html=1;align=center;" vertex="1" parent="1">
          <mxGeometry x="255" y="-110" width="350" height="20" as="geometry" />
        </mxCell>
        <mxCell id="vTDVaDkW4czHKNU96Y0x-398" value="" style="shape=table;startSize=0;container=1;collapsible=0;childLayout=tableLayout;fontSize=16;" vertex="1" parent="1">
          <mxGeometry x="255" y="-80" width="435" height="140.00000000000136" as="geometry" />
        </mxCell>
        <mxCell id="vTDVaDkW4czHKNU96Y0x-399" value="" style="shape=tableRow;horizontal=0;startSize=0;swimlaneHead=0;swimlaneBody=0;strokeColor=inherit;top=0;left=0;bottom=0;right=0;collapsible=0;dropTarget=0;fillColor=none;points=[[0,0.5],[1,0.5]];portConstraint=eastwest;fontSize=16;" vertex="1" parent="vTDVaDkW4czHKNU96Y0x-398">
          <mxGeometry width="435" height="20" as="geometry" />
        </mxCell>
        <mxCell id="vTDVaDkW4czHKNU96Y0x-400" value="node id" style="shape=partialRectangle;html=1;whiteSpace=wrap;connectable=0;strokeColor=inherit;overflow=hidden;fillColor=none;top=0;left=0;bottom=0;right=0;pointerEvents=1;fontSize=16;" vertex="1" parent="vTDVaDkW4czHKNU96Y0x-399">
          <mxGeometry width="60" height="20" as="geometry">
            <mxRectangle width="60" height="20" as="alternateBounds" />
          </mxGeometry>
        </mxCell>
        <mxCell id="vTDVaDkW4czHKNU96Y0x-401" value="ip" style="shape=partialRectangle;html=1;whiteSpace=wrap;connectable=0;strokeColor=inherit;overflow=hidden;fillColor=none;top=0;left=0;bottom=0;right=0;pointerEvents=1;fontSize=16;" vertex="1" parent="vTDVaDkW4czHKNU96Y0x-399">
          <mxGeometry x="60" width="60" height="20" as="geometry">
            <mxRectangle width="60" height="20" as="alternateBounds" />
          </mxGeometry>
        </mxCell>
        <mxCell id="vTDVaDkW4czHKNU96Y0x-402" value="status" style="shape=partialRectangle;html=1;whiteSpace=wrap;connectable=0;strokeColor=inherit;overflow=hidden;fillColor=none;top=0;left=0;bottom=0;right=0;pointerEvents=1;fontSize=16;" vertex="1" parent="vTDVaDkW4czHKNU96Y0x-399">
          <mxGeometry x="120" width="60" height="20" as="geometry">
            <mxRectangle width="60" height="20" as="alternateBounds" />
          </mxGeometry>
        </mxCell>
        <mxCell id="vTDVaDkW4czHKNU96Y0x-411" value="created time" style="shape=partialRectangle;html=1;whiteSpace=wrap;connectable=0;strokeColor=inherit;overflow=hidden;fillColor=none;top=0;left=0;bottom=0;right=0;pointerEvents=1;fontSize=16;" vertex="1" parent="vTDVaDkW4czHKNU96Y0x-399">
          <mxGeometry x="180" width="105" height="20" as="geometry">
            <mxRectangle width="105" height="20" as="alternateBounds" />
          </mxGeometry>
        </mxCell>
        <mxCell id="vTDVaDkW4czHKNU96Y0x-414" value="vpc" style="shape=partialRectangle;html=1;whiteSpace=wrap;connectable=0;strokeColor=inherit;overflow=hidden;fillColor=none;top=0;left=0;bottom=0;right=0;pointerEvents=1;fontSize=16;" vertex="1" parent="vTDVaDkW4czHKNU96Y0x-399">
          <mxGeometry x="285" width="50" height="20" as="geometry">
            <mxRectangle width="50" height="20" as="alternateBounds" />
          </mxGeometry>
        </mxCell>
        <mxCell id="vTDVaDkW4czHKNU96Y0x-417" value="label" style="shape=partialRectangle;html=1;whiteSpace=wrap;connectable=0;strokeColor=inherit;overflow=hidden;fillColor=none;top=0;left=0;bottom=0;right=0;pointerEvents=1;fontSize=16;" vertex="1" parent="vTDVaDkW4czHKNU96Y0x-399">
          <mxGeometry x="335" width="50" height="20" as="geometry">
            <mxRectangle width="50" height="20" as="alternateBounds" />
          </mxGeometry>
        </mxCell>
        <mxCell id="vTDVaDkW4czHKNU96Y0x-420" value="more" style="shape=partialRectangle;html=1;whiteSpace=wrap;connectable=0;strokeColor=inherit;overflow=hidden;fillColor=none;top=0;left=0;bottom=0;right=0;pointerEvents=1;fontSize=16;" vertex="1" parent="vTDVaDkW4czHKNU96Y0x-399">
          <mxGeometry x="385" width="50" height="20" as="geometry">
            <mxRectangle width="50" height="20" as="alternateBounds" />
          </mxGeometry>
        </mxCell>
        <mxCell id="vTDVaDkW4czHKNU96Y0x-403" value="" style="shape=tableRow;horizontal=0;startSize=0;swimlaneHead=0;swimlaneBody=0;strokeColor=inherit;top=0;left=0;bottom=0;right=0;collapsible=0;dropTarget=0;fillColor=none;points=[[0,0.5],[1,0.5]];portConstraint=eastwest;fontSize=16;" vertex="1" parent="vTDVaDkW4czHKNU96Y0x-398">
          <mxGeometry y="20" width="435" height="20" as="geometry" />
        </mxCell>
        <mxCell id="vTDVaDkW4czHKNU96Y0x-404" value="" style="shape=partialRectangle;html=1;whiteSpace=wrap;connectable=0;strokeColor=inherit;overflow=hidden;fillColor=none;top=0;left=0;bottom=0;right=0;pointerEvents=1;fontSize=16;" vertex="1" parent="vTDVaDkW4czHKNU96Y0x-403">
          <mxGeometry width="60" height="20" as="geometry">
            <mxRectangle width="60" height="20" as="alternateBounds" />
          </mxGeometry>
        </mxCell>
        <mxCell id="vTDVaDkW4czHKNU96Y0x-405" value="" style="shape=partialRectangle;html=1;whiteSpace=wrap;connectable=0;strokeColor=inherit;overflow=hidden;fillColor=none;top=0;left=0;bottom=0;right=0;pointerEvents=1;fontSize=16;" vertex="1" parent="vTDVaDkW4czHKNU96Y0x-403">
          <mxGeometry x="60" width="60" height="20" as="geometry">
            <mxRectangle width="60" height="20" as="alternateBounds" />
          </mxGeometry>
        </mxCell>
        <mxCell id="vTDVaDkW4czHKNU96Y0x-406" value="" style="shape=partialRectangle;html=1;whiteSpace=wrap;connectable=0;strokeColor=inherit;overflow=hidden;fillColor=none;top=0;left=0;bottom=0;right=0;pointerEvents=1;fontSize=16;" vertex="1" parent="vTDVaDkW4czHKNU96Y0x-403">
          <mxGeometry x="120" width="60" height="20" as="geometry">
            <mxRectangle width="60" height="20" as="alternateBounds" />
          </mxGeometry>
        </mxCell>
        <mxCell id="vTDVaDkW4czHKNU96Y0x-412" style="shape=partialRectangle;html=1;whiteSpace=wrap;connectable=0;strokeColor=inherit;overflow=hidden;fillColor=none;top=0;left=0;bottom=0;right=0;pointerEvents=1;fontSize=16;" vertex="1" parent="vTDVaDkW4czHKNU96Y0x-403">
          <mxGeometry x="180" width="105" height="20" as="geometry">
            <mxRectangle width="105" height="20" as="alternateBounds" />
          </mxGeometry>
        </mxCell>
        <mxCell id="vTDVaDkW4czHKNU96Y0x-415" style="shape=partialRectangle;html=1;whiteSpace=wrap;connectable=0;strokeColor=inherit;overflow=hidden;fillColor=none;top=0;left=0;bottom=0;right=0;pointerEvents=1;fontSize=16;" vertex="1" parent="vTDVaDkW4czHKNU96Y0x-403">
          <mxGeometry x="285" width="50" height="20" as="geometry">
            <mxRectangle width="50" height="20" as="alternateBounds" />
          </mxGeometry>
        </mxCell>
        <mxCell id="vTDVaDkW4czHKNU96Y0x-418" style="shape=partialRectangle;html=1;whiteSpace=wrap;connectable=0;strokeColor=inherit;overflow=hidden;fillColor=none;top=0;left=0;bottom=0;right=0;pointerEvents=1;fontSize=16;" vertex="1" parent="vTDVaDkW4czHKNU96Y0x-403">
          <mxGeometry x="335" width="50" height="20" as="geometry">
            <mxRectangle width="50" height="20" as="alternateBounds" />
          </mxGeometry>
        </mxCell>
        <mxCell id="vTDVaDkW4czHKNU96Y0x-421" style="shape=partialRectangle;html=1;whiteSpace=wrap;connectable=0;strokeColor=inherit;overflow=hidden;fillColor=none;top=0;left=0;bottom=0;right=0;pointerEvents=1;fontSize=16;" vertex="1" parent="vTDVaDkW4czHKNU96Y0x-403">
          <mxGeometry x="385" width="50" height="20" as="geometry">
            <mxRectangle width="50" height="20" as="alternateBounds" />
          </mxGeometry>
        </mxCell>
        <mxCell id="vTDVaDkW4czHKNU96Y0x-407" value="" style="shape=tableRow;horizontal=0;startSize=0;swimlaneHead=0;swimlaneBody=0;strokeColor=inherit;top=0;left=0;bottom=0;right=0;collapsible=0;dropTarget=0;fillColor=none;points=[[0,0.5],[1,0.5]];portConstraint=eastwest;fontSize=16;" vertex="1" parent="vTDVaDkW4czHKNU96Y0x-398">
          <mxGeometry y="40" width="435" height="20" as="geometry" />
        </mxCell>
        <mxCell id="vTDVaDkW4czHKNU96Y0x-408" value="" style="shape=partialRectangle;html=1;whiteSpace=wrap;connectable=0;strokeColor=inherit;overflow=hidden;fillColor=none;top=0;left=0;bottom=0;right=0;pointerEvents=1;fontSize=16;" vertex="1" parent="vTDVaDkW4czHKNU96Y0x-407">
          <mxGeometry width="60" height="20" as="geometry">
            <mxRectangle width="60" height="20" as="alternateBounds" />
          </mxGeometry>
        </mxCell>
        <mxCell id="vTDVaDkW4czHKNU96Y0x-409" value="" style="shape=partialRectangle;html=1;whiteSpace=wrap;connectable=0;strokeColor=inherit;overflow=hidden;fillColor=none;top=0;left=0;bottom=0;right=0;pointerEvents=1;fontSize=16;" vertex="1" parent="vTDVaDkW4czHKNU96Y0x-407">
          <mxGeometry x="60" width="60" height="20" as="geometry">
            <mxRectangle width="60" height="20" as="alternateBounds" />
          </mxGeometry>
        </mxCell>
        <mxCell id="vTDVaDkW4czHKNU96Y0x-410" value="" style="shape=partialRectangle;html=1;whiteSpace=wrap;connectable=0;strokeColor=inherit;overflow=hidden;fillColor=none;top=0;left=0;bottom=0;right=0;pointerEvents=1;fontSize=16;" vertex="1" parent="vTDVaDkW4czHKNU96Y0x-407">
          <mxGeometry x="120" width="60" height="20" as="geometry">
            <mxRectangle width="60" height="20" as="alternateBounds" />
          </mxGeometry>
        </mxCell>
        <mxCell id="vTDVaDkW4czHKNU96Y0x-413" style="shape=partialRectangle;html=1;whiteSpace=wrap;connectable=0;strokeColor=inherit;overflow=hidden;fillColor=none;top=0;left=0;bottom=0;right=0;pointerEvents=1;fontSize=16;" vertex="1" parent="vTDVaDkW4czHKNU96Y0x-407">
          <mxGeometry x="180" width="105" height="20" as="geometry">
            <mxRectangle width="105" height="20" as="alternateBounds" />
          </mxGeometry>
        </mxCell>
        <mxCell id="vTDVaDkW4czHKNU96Y0x-416" style="shape=partialRectangle;html=1;whiteSpace=wrap;connectable=0;strokeColor=inherit;overflow=hidden;fillColor=none;top=0;left=0;bottom=0;right=0;pointerEvents=1;fontSize=16;" vertex="1" parent="vTDVaDkW4czHKNU96Y0x-407">
          <mxGeometry x="285" width="50" height="20" as="geometry">
            <mxRectangle width="50" height="20" as="alternateBounds" />
          </mxGeometry>
        </mxCell>
        <mxCell id="vTDVaDkW4czHKNU96Y0x-419" style="shape=partialRectangle;html=1;whiteSpace=wrap;connectable=0;strokeColor=inherit;overflow=hidden;fillColor=none;top=0;left=0;bottom=0;right=0;pointerEvents=1;fontSize=16;" vertex="1" parent="vTDVaDkW4czHKNU96Y0x-407">
          <mxGeometry x="335" width="50" height="20" as="geometry">
            <mxRectangle width="50" height="20" as="alternateBounds" />
          </mxGeometry>
        </mxCell>
        <mxCell id="vTDVaDkW4czHKNU96Y0x-422" style="shape=partialRectangle;html=1;whiteSpace=wrap;connectable=0;strokeColor=inherit;overflow=hidden;fillColor=none;top=0;left=0;bottom=0;right=0;pointerEvents=1;fontSize=16;" vertex="1" parent="vTDVaDkW4czHKNU96Y0x-407">
          <mxGeometry x="385" width="50" height="20" as="geometry">
            <mxRectangle width="50" height="20" as="alternateBounds" />
          </mxGeometry>
        </mxCell>
        <mxCell id="vTDVaDkW4czHKNU96Y0x-428" style="shape=tableRow;horizontal=0;startSize=0;swimlaneHead=0;swimlaneBody=0;strokeColor=inherit;top=0;left=0;bottom=0;right=0;collapsible=0;dropTarget=0;fillColor=none;points=[[0,0.5],[1,0.5]];portConstraint=eastwest;fontSize=16;" vertex="1" parent="vTDVaDkW4czHKNU96Y0x-398">
          <mxGeometry y="60" width="435" height="20" as="geometry" />
        </mxCell>
        <mxCell id="vTDVaDkW4czHKNU96Y0x-429" style="shape=partialRectangle;html=1;whiteSpace=wrap;connectable=0;strokeColor=inherit;overflow=hidden;fillColor=none;top=0;left=0;bottom=0;right=0;pointerEvents=1;fontSize=16;" vertex="1" parent="vTDVaDkW4czHKNU96Y0x-428">
          <mxGeometry width="60" height="20" as="geometry">
            <mxRectangle width="60" height="20" as="alternateBounds" />
          </mxGeometry>
        </mxCell>
        <mxCell id="vTDVaDkW4czHKNU96Y0x-430" style="shape=partialRectangle;html=1;whiteSpace=wrap;connectable=0;strokeColor=inherit;overflow=hidden;fillColor=none;top=0;left=0;bottom=0;right=0;pointerEvents=1;fontSize=16;" vertex="1" parent="vTDVaDkW4czHKNU96Y0x-428">
          <mxGeometry x="60" width="60" height="20" as="geometry">
            <mxRectangle width="60" height="20" as="alternateBounds" />
          </mxGeometry>
        </mxCell>
        <mxCell id="vTDVaDkW4czHKNU96Y0x-431" style="shape=partialRectangle;html=1;whiteSpace=wrap;connectable=0;strokeColor=inherit;overflow=hidden;fillColor=none;top=0;left=0;bottom=0;right=0;pointerEvents=1;fontSize=16;" vertex="1" parent="vTDVaDkW4czHKNU96Y0x-428">
          <mxGeometry x="120" width="60" height="20" as="geometry">
            <mxRectangle width="60" height="20" as="alternateBounds" />
          </mxGeometry>
        </mxCell>
        <mxCell id="vTDVaDkW4czHKNU96Y0x-432" style="shape=partialRectangle;html=1;whiteSpace=wrap;connectable=0;strokeColor=inherit;overflow=hidden;fillColor=none;top=0;left=0;bottom=0;right=0;pointerEvents=1;fontSize=16;" vertex="1" parent="vTDVaDkW4czHKNU96Y0x-428">
          <mxGeometry x="180" width="105" height="20" as="geometry">
            <mxRectangle width="105" height="20" as="alternateBounds" />
          </mxGeometry>
        </mxCell>
        <mxCell id="vTDVaDkW4czHKNU96Y0x-433" style="shape=partialRectangle;html=1;whiteSpace=wrap;connectable=0;strokeColor=inherit;overflow=hidden;fillColor=none;top=0;left=0;bottom=0;right=0;pointerEvents=1;fontSize=16;" vertex="1" parent="vTDVaDkW4czHKNU96Y0x-428">
          <mxGeometry x="285" width="50" height="20" as="geometry">
            <mxRectangle width="50" height="20" as="alternateBounds" />
          </mxGeometry>
        </mxCell>
        <mxCell id="vTDVaDkW4czHKNU96Y0x-434" style="shape=partialRectangle;html=1;whiteSpace=wrap;connectable=0;strokeColor=inherit;overflow=hidden;fillColor=none;top=0;left=0;bottom=0;right=0;pointerEvents=1;fontSize=16;" vertex="1" parent="vTDVaDkW4czHKNU96Y0x-428">
          <mxGeometry x="335" width="50" height="20" as="geometry">
            <mxRectangle width="50" height="20" as="alternateBounds" />
          </mxGeometry>
        </mxCell>
        <mxCell id="vTDVaDkW4czHKNU96Y0x-435" style="shape=partialRectangle;html=1;whiteSpace=wrap;connectable=0;strokeColor=inherit;overflow=hidden;fillColor=none;top=0;left=0;bottom=0;right=0;pointerEvents=1;fontSize=16;" vertex="1" parent="vTDVaDkW4czHKNU96Y0x-428">
          <mxGeometry x="385" width="50" height="20" as="geometry">
            <mxRectangle width="50" height="20" as="alternateBounds" />
          </mxGeometry>
        </mxCell>
        <mxCell id="vTDVaDkW4czHKNU96Y0x-436" style="shape=tableRow;horizontal=0;startSize=0;swimlaneHead=0;swimlaneBody=0;strokeColor=inherit;top=0;left=0;bottom=0;right=0;collapsible=0;dropTarget=0;fillColor=none;points=[[0,0.5],[1,0.5]];portConstraint=eastwest;fontSize=16;" vertex="1" parent="vTDVaDkW4czHKNU96Y0x-398">
          <mxGeometry y="80" width="435" height="20" as="geometry" />
        </mxCell>
        <mxCell id="vTDVaDkW4czHKNU96Y0x-437" style="shape=partialRectangle;html=1;whiteSpace=wrap;connectable=0;strokeColor=inherit;overflow=hidden;fillColor=none;top=0;left=0;bottom=0;right=0;pointerEvents=1;fontSize=16;" vertex="1" parent="vTDVaDkW4czHKNU96Y0x-436">
          <mxGeometry width="60" height="20" as="geometry">
            <mxRectangle width="60" height="20" as="alternateBounds" />
          </mxGeometry>
        </mxCell>
        <mxCell id="vTDVaDkW4czHKNU96Y0x-438" style="shape=partialRectangle;html=1;whiteSpace=wrap;connectable=0;strokeColor=inherit;overflow=hidden;fillColor=none;top=0;left=0;bottom=0;right=0;pointerEvents=1;fontSize=16;" vertex="1" parent="vTDVaDkW4czHKNU96Y0x-436">
          <mxGeometry x="60" width="60" height="20" as="geometry">
            <mxRectangle width="60" height="20" as="alternateBounds" />
          </mxGeometry>
        </mxCell>
        <mxCell id="vTDVaDkW4czHKNU96Y0x-439" style="shape=partialRectangle;html=1;whiteSpace=wrap;connectable=0;strokeColor=inherit;overflow=hidden;fillColor=none;top=0;left=0;bottom=0;right=0;pointerEvents=1;fontSize=16;" vertex="1" parent="vTDVaDkW4czHKNU96Y0x-436">
          <mxGeometry x="120" width="60" height="20" as="geometry">
            <mxRectangle width="60" height="20" as="alternateBounds" />
          </mxGeometry>
        </mxCell>
        <mxCell id="vTDVaDkW4czHKNU96Y0x-440" style="shape=partialRectangle;html=1;whiteSpace=wrap;connectable=0;strokeColor=inherit;overflow=hidden;fillColor=none;top=0;left=0;bottom=0;right=0;pointerEvents=1;fontSize=16;" vertex="1" parent="vTDVaDkW4czHKNU96Y0x-436">
          <mxGeometry x="180" width="105" height="20" as="geometry">
            <mxRectangle width="105" height="20" as="alternateBounds" />
          </mxGeometry>
        </mxCell>
        <mxCell id="vTDVaDkW4czHKNU96Y0x-441" style="shape=partialRectangle;html=1;whiteSpace=wrap;connectable=0;strokeColor=inherit;overflow=hidden;fillColor=none;top=0;left=0;bottom=0;right=0;pointerEvents=1;fontSize=16;" vertex="1" parent="vTDVaDkW4czHKNU96Y0x-436">
          <mxGeometry x="285" width="50" height="20" as="geometry">
            <mxRectangle width="50" height="20" as="alternateBounds" />
          </mxGeometry>
        </mxCell>
        <mxCell id="vTDVaDkW4czHKNU96Y0x-442" style="shape=partialRectangle;html=1;whiteSpace=wrap;connectable=0;strokeColor=inherit;overflow=hidden;fillColor=none;top=0;left=0;bottom=0;right=0;pointerEvents=1;fontSize=16;" vertex="1" parent="vTDVaDkW4czHKNU96Y0x-436">
          <mxGeometry x="335" width="50" height="20" as="geometry">
            <mxRectangle width="50" height="20" as="alternateBounds" />
          </mxGeometry>
        </mxCell>
        <mxCell id="vTDVaDkW4czHKNU96Y0x-443" style="shape=partialRectangle;html=1;whiteSpace=wrap;connectable=0;strokeColor=inherit;overflow=hidden;fillColor=none;top=0;left=0;bottom=0;right=0;pointerEvents=1;fontSize=16;" vertex="1" parent="vTDVaDkW4czHKNU96Y0x-436">
          <mxGeometry x="385" width="50" height="20" as="geometry">
            <mxRectangle width="50" height="20" as="alternateBounds" />
          </mxGeometry>
        </mxCell>
        <mxCell id="vTDVaDkW4czHKNU96Y0x-444" style="shape=tableRow;horizontal=0;startSize=0;swimlaneHead=0;swimlaneBody=0;strokeColor=inherit;top=0;left=0;bottom=0;right=0;collapsible=0;dropTarget=0;fillColor=none;points=[[0,0.5],[1,0.5]];portConstraint=eastwest;fontSize=16;" vertex="1" parent="vTDVaDkW4czHKNU96Y0x-398">
          <mxGeometry y="100" width="435" height="20" as="geometry" />
        </mxCell>
        <mxCell id="vTDVaDkW4czHKNU96Y0x-445" style="shape=partialRectangle;html=1;whiteSpace=wrap;connectable=0;strokeColor=inherit;overflow=hidden;fillColor=none;top=0;left=0;bottom=0;right=0;pointerEvents=1;fontSize=16;" vertex="1" parent="vTDVaDkW4czHKNU96Y0x-444">
          <mxGeometry width="60" height="20" as="geometry">
            <mxRectangle width="60" height="20" as="alternateBounds" />
          </mxGeometry>
        </mxCell>
        <mxCell id="vTDVaDkW4czHKNU96Y0x-446" style="shape=partialRectangle;html=1;whiteSpace=wrap;connectable=0;strokeColor=inherit;overflow=hidden;fillColor=none;top=0;left=0;bottom=0;right=0;pointerEvents=1;fontSize=16;" vertex="1" parent="vTDVaDkW4czHKNU96Y0x-444">
          <mxGeometry x="60" width="60" height="20" as="geometry">
            <mxRectangle width="60" height="20" as="alternateBounds" />
          </mxGeometry>
        </mxCell>
        <mxCell id="vTDVaDkW4czHKNU96Y0x-447" style="shape=partialRectangle;html=1;whiteSpace=wrap;connectable=0;strokeColor=inherit;overflow=hidden;fillColor=none;top=0;left=0;bottom=0;right=0;pointerEvents=1;fontSize=16;" vertex="1" parent="vTDVaDkW4czHKNU96Y0x-444">
          <mxGeometry x="120" width="60" height="20" as="geometry">
            <mxRectangle width="60" height="20" as="alternateBounds" />
          </mxGeometry>
        </mxCell>
        <mxCell id="vTDVaDkW4czHKNU96Y0x-448" style="shape=partialRectangle;html=1;whiteSpace=wrap;connectable=0;strokeColor=inherit;overflow=hidden;fillColor=none;top=0;left=0;bottom=0;right=0;pointerEvents=1;fontSize=16;" vertex="1" parent="vTDVaDkW4czHKNU96Y0x-444">
          <mxGeometry x="180" width="105" height="20" as="geometry">
            <mxRectangle width="105" height="20" as="alternateBounds" />
          </mxGeometry>
        </mxCell>
        <mxCell id="vTDVaDkW4czHKNU96Y0x-449" style="shape=partialRectangle;html=1;whiteSpace=wrap;connectable=0;strokeColor=inherit;overflow=hidden;fillColor=none;top=0;left=0;bottom=0;right=0;pointerEvents=1;fontSize=16;" vertex="1" parent="vTDVaDkW4czHKNU96Y0x-444">
          <mxGeometry x="285" width="50" height="20" as="geometry">
            <mxRectangle width="50" height="20" as="alternateBounds" />
          </mxGeometry>
        </mxCell>
        <mxCell id="vTDVaDkW4czHKNU96Y0x-450" style="shape=partialRectangle;html=1;whiteSpace=wrap;connectable=0;strokeColor=inherit;overflow=hidden;fillColor=none;top=0;left=0;bottom=0;right=0;pointerEvents=1;fontSize=16;" vertex="1" parent="vTDVaDkW4czHKNU96Y0x-444">
          <mxGeometry x="335" width="50" height="20" as="geometry">
            <mxRectangle width="50" height="20" as="alternateBounds" />
          </mxGeometry>
        </mxCell>
        <mxCell id="vTDVaDkW4czHKNU96Y0x-451" style="shape=partialRectangle;html=1;whiteSpace=wrap;connectable=0;strokeColor=inherit;overflow=hidden;fillColor=none;top=0;left=0;bottom=0;right=0;pointerEvents=1;fontSize=16;" vertex="1" parent="vTDVaDkW4czHKNU96Y0x-444">
          <mxGeometry x="385" width="50" height="20" as="geometry">
            <mxRectangle width="50" height="20" as="alternateBounds" />
          </mxGeometry>
        </mxCell>
        <mxCell id="vTDVaDkW4czHKNU96Y0x-452" style="shape=tableRow;horizontal=0;startSize=0;swimlaneHead=0;swimlaneBody=0;strokeColor=inherit;top=0;left=0;bottom=0;right=0;collapsible=0;dropTarget=0;fillColor=none;points=[[0,0.5],[1,0.5]];portConstraint=eastwest;fontSize=16;" vertex="1" parent="vTDVaDkW4czHKNU96Y0x-398">
          <mxGeometry y="120" width="435" height="20" as="geometry" />
        </mxCell>
        <mxCell id="vTDVaDkW4czHKNU96Y0x-453" style="shape=partialRectangle;html=1;whiteSpace=wrap;connectable=0;strokeColor=inherit;overflow=hidden;fillColor=none;top=0;left=0;bottom=0;right=0;pointerEvents=1;fontSize=16;" vertex="1" parent="vTDVaDkW4czHKNU96Y0x-452">
          <mxGeometry width="60" height="20" as="geometry">
            <mxRectangle width="60" height="20" as="alternateBounds" />
          </mxGeometry>
        </mxCell>
        <mxCell id="vTDVaDkW4czHKNU96Y0x-454" style="shape=partialRectangle;html=1;whiteSpace=wrap;connectable=0;strokeColor=inherit;overflow=hidden;fillColor=none;top=0;left=0;bottom=0;right=0;pointerEvents=1;fontSize=16;" vertex="1" parent="vTDVaDkW4czHKNU96Y0x-452">
          <mxGeometry x="60" width="60" height="20" as="geometry">
            <mxRectangle width="60" height="20" as="alternateBounds" />
          </mxGeometry>
        </mxCell>
        <mxCell id="vTDVaDkW4czHKNU96Y0x-455" style="shape=partialRectangle;html=1;whiteSpace=wrap;connectable=0;strokeColor=inherit;overflow=hidden;fillColor=none;top=0;left=0;bottom=0;right=0;pointerEvents=1;fontSize=16;" vertex="1" parent="vTDVaDkW4czHKNU96Y0x-452">
          <mxGeometry x="120" width="60" height="20" as="geometry">
            <mxRectangle width="60" height="20" as="alternateBounds" />
          </mxGeometry>
        </mxCell>
        <mxCell id="vTDVaDkW4czHKNU96Y0x-456" style="shape=partialRectangle;html=1;whiteSpace=wrap;connectable=0;strokeColor=inherit;overflow=hidden;fillColor=none;top=0;left=0;bottom=0;right=0;pointerEvents=1;fontSize=16;" vertex="1" parent="vTDVaDkW4czHKNU96Y0x-452">
          <mxGeometry x="180" width="105" height="20" as="geometry">
            <mxRectangle width="105" height="20" as="alternateBounds" />
          </mxGeometry>
        </mxCell>
        <mxCell id="vTDVaDkW4czHKNU96Y0x-457" style="shape=partialRectangle;html=1;whiteSpace=wrap;connectable=0;strokeColor=inherit;overflow=hidden;fillColor=none;top=0;left=0;bottom=0;right=0;pointerEvents=1;fontSize=16;" vertex="1" parent="vTDVaDkW4czHKNU96Y0x-452">
          <mxGeometry x="285" width="50" height="20" as="geometry">
            <mxRectangle width="50" height="20" as="alternateBounds" />
          </mxGeometry>
        </mxCell>
        <mxCell id="vTDVaDkW4czHKNU96Y0x-458" style="shape=partialRectangle;html=1;whiteSpace=wrap;connectable=0;strokeColor=inherit;overflow=hidden;fillColor=none;top=0;left=0;bottom=0;right=0;pointerEvents=1;fontSize=16;" vertex="1" parent="vTDVaDkW4czHKNU96Y0x-452">
          <mxGeometry x="335" width="50" height="20" as="geometry">
            <mxRectangle width="50" height="20" as="alternateBounds" />
          </mxGeometry>
        </mxCell>
        <mxCell id="vTDVaDkW4czHKNU96Y0x-459" style="shape=partialRectangle;html=1;whiteSpace=wrap;connectable=0;strokeColor=inherit;overflow=hidden;fillColor=none;top=0;left=0;bottom=0;right=0;pointerEvents=1;fontSize=16;" vertex="1" parent="vTDVaDkW4czHKNU96Y0x-452">
          <mxGeometry x="385" width="50" height="20" as="geometry">
            <mxRectangle width="50" height="20" as="alternateBounds" />
          </mxGeometry>
        </mxCell>
        <mxCell id="vTDVaDkW4czHKNU96Y0x-423" value="node pool details" style="text;html=1;align=center;verticalAlign=middle;whiteSpace=wrap;rounded=0;" vertex="1" parent="1">
          <mxGeometry x="223" y="-160" width="130" height="30" as="geometry" />
        </mxCell>
        <mxCell id="vTDVaDkW4czHKNU96Y0x-424" value="双击可进入 node pool 详情页" style="text;html=1;align=center;verticalAlign=middle;whiteSpace=wrap;rounded=0;" vertex="1" parent="1">
          <mxGeometry x="600" y="335" width="130" height="30" as="geometry" />
        </mxCell>
        <mxCell id="vTDVaDkW4czHKNU96Y0x-426" value="more可以是添加监听 或者其他，加标签等" style="text;html=1;align=center;verticalAlign=middle;whiteSpace=wrap;rounded=0;" vertex="1" parent="1">
          <mxGeometry x="685" y="-80" width="130" height="30" as="geometry" />
        </mxCell>
        <mxCell id="vTDVaDkW4czHKNU96Y0x-427" value="add node" style="html=1;whiteSpace=wrap;" vertex="1" parent="1">
          <mxGeometry x="621" y="-110" width="70" height="20" as="geometry" />
        </mxCell>
        <mxCell id="vTDVaDkW4czHKNU96Y0x-527" value="" style="verticalLabelPosition=bottom;verticalAlign=top;html=1;shape=mxgraph.flowchart.on-page_reference;" vertex="1" parent="1">
          <mxGeometry x="387.5" y="2871" width="10" height="10" as="geometry" />
        </mxCell>
        <mxCell id="vTDVaDkW4czHKNU96Y0x-529" value="" style="rounded=1;whiteSpace=wrap;html=1;absoluteArcSize=1;arcSize=14;strokeWidth=2;" vertex="1" parent="1">
          <mxGeometry x="195" y="-570" width="570" height="330" as="geometry" />
        </mxCell>
        <mxCell id="vTDVaDkW4czHKNU96Y0x-530" value="node pools" style="rounded=1;whiteSpace=wrap;html=1;absoluteArcSize=1;arcSize=14;strokeWidth=2;fillColor=#dae8fc;strokeColor=#6c8ebf;" vertex="1" parent="1">
          <mxGeometry x="95" y="-570" width="100" height="40" as="geometry" />
        </mxCell>
        <mxCell id="vTDVaDkW4czHKNU96Y0x-531" value="jobs" style="rounded=1;whiteSpace=wrap;html=1;absoluteArcSize=1;arcSize=14;strokeWidth=2;" vertex="1" parent="1">
          <mxGeometry x="95" y="-530" width="100" height="40" as="geometry" />
        </mxCell>
        <mxCell id="vTDVaDkW4czHKNU96Y0x-532" value="template" style="rounded=1;whiteSpace=wrap;html=1;absoluteArcSize=1;arcSize=14;strokeWidth=2;" vertex="1" parent="1">
          <mxGeometry x="95" y="-490" width="100" height="40" as="geometry" />
        </mxCell>
        <mxCell id="vTDVaDkW4czHKNU96Y0x-533" value="customerized template" style="rounded=1;whiteSpace=wrap;html=1;absoluteArcSize=1;arcSize=14;strokeWidth=2;" vertex="1" parent="1">
          <mxGeometry x="95" y="-450" width="100" height="40" as="geometry" />
        </mxCell>
        <mxCell id="vTDVaDkW4czHKNU96Y0x-534" value="vpc" style="whiteSpace=wrap;html=1;align=center;" vertex="1" parent="1">
          <mxGeometry x="240" y="-500" width="70" height="20" as="geometry" />
        </mxCell>
        <mxCell id="vTDVaDkW4czHKNU96Y0x-535" value="" style="html=1;whiteSpace=wrap;" vertex="1" parent="1">
          <mxGeometry x="320" y="-500" width="185" height="20" as="geometry" />
        </mxCell>
        <mxCell id="vTDVaDkW4czHKNU96Y0x-536" value="add nodepool" style="html=1;whiteSpace=wrap;strokeWidth=0;" vertex="1" parent="1">
          <mxGeometry x="228" y="-560" width="95" height="20" as="geometry" />
        </mxCell>
        <mxCell id="vTDVaDkW4czHKNU96Y0x-537" value="这里是dropdown list" style="html=1;whiteSpace=wrap;strokeWidth=0;opacity=0;" vertex="1" parent="1">
          <mxGeometry x="463" y="-500" width="200" height="20" as="geometry" />
        </mxCell>
        <mxCell id="vTDVaDkW4czHKNU96Y0x-538" value="network" style="whiteSpace=wrap;html=1;align=center;" vertex="1" parent="1">
          <mxGeometry x="240" y="-470" width="70" height="20" as="geometry" />
        </mxCell>
        <mxCell id="vTDVaDkW4czHKNU96Y0x-539" value="Ubuntu&amp;nbsp;" style="whiteSpace=wrap;html=1;align=center;" vertex="1" parent="1">
          <mxGeometry x="240" y="-440" width="70" height="20" as="geometry" />
        </mxCell>
        <mxCell id="vTDVaDkW4czHKNU96Y0x-540" value="" style="html=1;whiteSpace=wrap;" vertex="1" parent="1">
          <mxGeometry x="320" y="-440" width="185" height="20" as="geometry" />
        </mxCell>
        <mxCell id="vTDVaDkW4czHKNU96Y0x-541" value="cuda" style="whiteSpace=wrap;html=1;align=center;" vertex="1" parent="1">
          <mxGeometry x="240" y="-410" width="70" height="20" as="geometry" />
        </mxCell>
        <mxCell id="vTDVaDkW4czHKNU96Y0x-542" value="" style="html=1;whiteSpace=wrap;" vertex="1" parent="1">
          <mxGeometry x="320" y="-410" width="185" height="20" as="geometry" />
        </mxCell>
        <mxCell id="vTDVaDkW4czHKNU96Y0x-543" value="fabric" style="whiteSpace=wrap;html=1;align=center;" vertex="1" parent="1">
          <mxGeometry x="240" y="-380" width="70" height="20" as="geometry" />
        </mxCell>
        <mxCell id="vTDVaDkW4czHKNU96Y0x-544" value="" style="html=1;whiteSpace=wrap;" vertex="1" parent="1">
          <mxGeometry x="320" y="-380" width="185" height="20" as="geometry" />
        </mxCell>
        <mxCell id="vTDVaDkW4czHKNU96Y0x-545" value="cudnn" style="whiteSpace=wrap;html=1;align=center;" vertex="1" parent="1">
          <mxGeometry x="240" y="-350" width="70" height="20" as="geometry" />
        </mxCell>
        <mxCell id="vTDVaDkW4czHKNU96Y0x-546" value="" style="html=1;whiteSpace=wrap;" vertex="1" parent="1">
          <mxGeometry x="320" y="-350" width="185" height="20" as="geometry" />
        </mxCell>
        <mxCell id="vTDVaDkW4czHKNU96Y0x-548" value="" style="verticalLabelPosition=bottom;verticalAlign=top;html=1;shape=mxgraph.flowchart.on-page_reference;" vertex="1" parent="1">
          <mxGeometry x="327.5" y="-465" width="10" height="10" as="geometry" />
        </mxCell>
        <mxCell id="vTDVaDkW4czHKNU96Y0x-550" value="Infiniband" style="html=1;whiteSpace=wrap;strokeWidth=0;" vertex="1" parent="1">
          <mxGeometry x="337.5" y="-470" width="65" height="20" as="geometry" />
        </mxCell>
        <mxCell id="vTDVaDkW4czHKNU96Y0x-551" value="RoCE" style="html=1;whiteSpace=wrap;strokeWidth=0;" vertex="1" parent="1">
          <mxGeometry x="418.75" y="-470" width="42.5" height="20" as="geometry" />
        </mxCell>
        <mxCell id="vTDVaDkW4czHKNU96Y0x-552" value="这里是check box" style="html=1;whiteSpace=wrap;strokeWidth=0;opacity=0;" vertex="1" parent="1">
          <mxGeometry x="461.25" y="-465" width="120" height="15" as="geometry" />
        </mxCell>
        <mxCell id="vTDVaDkW4czHKNU96Y0x-553" value="create" style="html=1;whiteSpace=wrap;" vertex="1" parent="1">
          <mxGeometry x="445" y="-300" width="60" height="20" as="geometry" />
        </mxCell>
        <mxCell id="vTDVaDkW4czHKNU96Y0x-554" value="" style="verticalLabelPosition=bottom;verticalAlign=top;html=1;shape=mxgraph.flowchart.on-page_reference;" vertex="1" parent="1">
          <mxGeometry x="408.75" y="-465" width="10" height="10" as="geometry" />
        </mxCell>
        <mxCell id="vTDVaDkW4czHKNU96Y0x-558" value="这里是textbox" style="html=1;whiteSpace=wrap;strokeWidth=0;opacity=0;" vertex="1" parent="1">
          <mxGeometry x="470" y="2805" width="120" height="15" as="geometry" />
        </mxCell>
        <mxCell id="vTDVaDkW4czHKNU96Y0x-560" value="template details 就是一个模板的概念，相当于初始化一台机器需要用的模板" style="text;html=1;align=center;verticalAlign=middle;whiteSpace=wrap;rounded=0;" vertex="1" parent="1">
          <mxGeometry x="491.25" y="2750" width="198.75" height="50" as="geometry" />
        </mxCell>
        <mxCell id="vTDVaDkW4czHKNU96Y0x-561" value="action" style="rounded=1;whiteSpace=wrap;html=1;absoluteArcSize=1;arcSize=14;strokeWidth=2;" vertex="1" parent="1">
          <mxGeometry x="75" y="2490" width="100" height="40" as="geometry" />
        </mxCell>
        <mxCell id="vTDVaDkW4czHKNU96Y0x-562" value="action" style="rounded=1;whiteSpace=wrap;html=1;absoluteArcSize=1;arcSize=14;strokeWidth=2;" vertex="1" parent="1">
          <mxGeometry x="75" y="2890" width="100" height="40" as="geometry" />
        </mxCell>
        <mxCell id="vTDVaDkW4czHKNU96Y0x-563" value="action" style="rounded=1;whiteSpace=wrap;html=1;absoluteArcSize=1;arcSize=14;strokeWidth=2;" vertex="1" parent="1">
          <mxGeometry x="85" y="3310" width="100" height="40" as="geometry" />
        </mxCell>
        <mxCell id="vTDVaDkW4czHKNU96Y0x-564" value="dropdown list" style="html=1;whiteSpace=wrap;strokeWidth=0;opacity=0;" vertex="1" parent="1">
          <mxGeometry x="477" y="2837.5" width="93" height="15" as="geometry" />
        </mxCell>
        <mxCell id="vTDVaDkW4czHKNU96Y0x-572" value="" style="html=1;verticalLabelPosition=bottom;labelBackgroundColor=#ffffff;verticalAlign=top;shadow=0;dashed=0;strokeWidth=2;shape=mxgraph.ios7.misc.select;fillColor=#0080f0;strokeColor=#ffffff;sketch=0;" vertex="1" parent="1">
          <mxGeometry x="224" y="2906" width="12" height="12" as="geometry" />
        </mxCell>
        <mxCell id="vTDVaDkW4czHKNU96Y0x-573" value="" style="html=1;verticalLabelPosition=bottom;labelBackgroundColor=#ffffff;verticalAlign=top;shadow=0;dashed=0;strokeWidth=2;shape=mxgraph.ios7.misc.select;fillColor=#0080f0;strokeColor=#ffffff;sketch=0;" vertex="1" parent="1">
          <mxGeometry x="223" y="2966" width="12" height="12" as="geometry" />
        </mxCell>
        <mxCell id="vTDVaDkW4czHKNU96Y0x-574" value="" style="html=1;verticalLabelPosition=bottom;labelBackgroundColor=#ffffff;verticalAlign=top;shadow=0;dashed=0;strokeWidth=2;shape=mxgraph.ios7.misc.select;fillColor=#0080f0;strokeColor=#ffffff;sketch=0;" vertex="1" parent="1">
          <mxGeometry x="223" y="2936" width="12" height="12" as="geometry" />
        </mxCell>
        <mxCell id="vTDVaDkW4czHKNU96Y0x-575" value="" style="html=1;verticalLabelPosition=bottom;labelBackgroundColor=#ffffff;verticalAlign=top;shadow=0;dashed=0;strokeWidth=2;shape=mxgraph.ios7.misc.select;fillColor=#0080f0;strokeColor=#ffffff;sketch=0;" vertex="1" parent="1">
          <mxGeometry x="225" y="2870" width="12" height="12" as="geometry" />
        </mxCell>
        <mxCell id="vTDVaDkW4czHKNU96Y0x-576" value="dropdown list" style="html=1;whiteSpace=wrap;strokeWidth=0;opacity=0;" vertex="1" parent="1">
          <mxGeometry x="473.5" y="2904.5" width="93" height="15" as="geometry" />
        </mxCell>
        <mxCell id="vTDVaDkW4czHKNU96Y0x-577" value="dropdown list" style="html=1;whiteSpace=wrap;strokeWidth=0;opacity=0;" vertex="1" parent="1">
          <mxGeometry x="474.75" y="2933" width="93" height="15" as="geometry" />
        </mxCell>
        <mxCell id="vTDVaDkW4czHKNU96Y0x-578" value="dropdown list" style="html=1;whiteSpace=wrap;strokeWidth=0;opacity=0;" vertex="1" parent="1">
          <mxGeometry x="474.75" y="2962" width="93" height="15" as="geometry" />
        </mxCell>
        <mxCell id="vTDVaDkW4czHKNU96Y0x-579" value="" style="endArrow=classic;html=1;rounded=0;exitX=0.75;exitY=0;exitDx=0;exitDy=0;" edge="1" parent="1" source="vTDVaDkW4czHKNU96Y0x-580">
          <mxGeometry width="50" height="50" relative="1" as="geometry">
            <mxPoint x="110" y="3010" as="sourcePoint" />
            <mxPoint x="220" y="2947" as="targetPoint" />
          </mxGeometry>
        </mxCell>
        <mxCell id="vTDVaDkW4czHKNU96Y0x-580" value="可选可不选，不选择时候右侧的dropdownlist or checkbox 可以置灰" style="text;html=1;align=center;verticalAlign=middle;whiteSpace=wrap;rounded=0;" vertex="1" parent="1">
          <mxGeometry x="50" y="2990" width="100" height="30" as="geometry" />
        </mxCell>
        <mxCell id="vTDVaDkW4czHKNU96Y0x-581" value="" style="rounded=1;whiteSpace=wrap;html=1;strokeWidth=2;fillWeight=4;hachureGap=8;hachureAngle=45;fillColor=#1ba1e2;sketch=1;opacity=10;" vertex="1" parent="1">
          <mxGeometry x="292" y="2860" width="286" height="136.5" as="geometry" />
        </mxCell>
        <mxCell id="vTDVaDkW4czHKNU96Y0x-582" value="" style="rounded=1;whiteSpace=wrap;html=1;absoluteArcSize=1;arcSize=14;strokeWidth=2;" vertex="1" parent="1">
          <mxGeometry x="180" y="3551" width="570" height="330" as="geometry" />
        </mxCell>
        <mxCell id="vTDVaDkW4czHKNU96Y0x-583" value="node pools" style="rounded=1;whiteSpace=wrap;html=1;absoluteArcSize=1;arcSize=14;strokeWidth=2;" vertex="1" parent="1">
          <mxGeometry x="79" y="3551" width="100" height="40" as="geometry" />
        </mxCell>
        <mxCell id="vTDVaDkW4czHKNU96Y0x-584" value="jobs" style="rounded=1;whiteSpace=wrap;html=1;absoluteArcSize=1;arcSize=14;strokeWidth=2;" vertex="1" parent="1">
          <mxGeometry x="79" y="3591" width="100" height="40" as="geometry" />
        </mxCell>
        <UserObject label="template" link="http://test.damodel.net/login" id="vTDVaDkW4czHKNU96Y0x-585">
          <mxCell style="rounded=1;whiteSpace=wrap;html=1;absoluteArcSize=1;arcSize=14;strokeWidth=2;" vertex="1" parent="1">
            <mxGeometry x="79" y="3631" width="100" height="40" as="geometry" />
          </mxCell>
        </UserObject>
        <mxCell id="vTDVaDkW4czHKNU96Y0x-586" value="customerized template" style="rounded=1;whiteSpace=wrap;html=1;absoluteArcSize=1;arcSize=14;strokeWidth=2;" vertex="1" parent="1">
          <mxGeometry x="79" y="3671" width="100" height="40" as="geometry" />
        </mxCell>
        <mxCell id="vTDVaDkW4czHKNU96Y0x-589" value="action" style="html=1;whiteSpace=wrap;strokeWidth=0;" vertex="1" parent="1">
          <mxGeometry x="230" y="3561" width="70" height="20" as="geometry" />
        </mxCell>
        <mxCell id="vTDVaDkW4czHKNU96Y0x-592" value="search" style="html=1;whiteSpace=wrap;" vertex="1" parent="1">
          <mxGeometry x="230" y="3611" width="390" height="20" as="geometry" />
        </mxCell>
        <mxCell id="vTDVaDkW4czHKNU96Y0x-593" value="create" style="html=1;whiteSpace=wrap;" vertex="1" parent="1">
          <mxGeometry x="631" y="3611" width="60" height="20" as="geometry" />
        </mxCell>
        <mxCell id="vTDVaDkW4czHKNU96Y0x-600" value="action" style="rounded=1;whiteSpace=wrap;html=1;absoluteArcSize=1;arcSize=14;strokeWidth=2;fillColor=#dae8fc;strokeColor=#6c8ebf;" vertex="1" parent="1">
          <mxGeometry x="79" y="3711" width="100" height="40" as="geometry" />
        </mxCell>
        <mxCell id="vTDVaDkW4czHKNU96Y0x-601" value="" style="rounded=1;whiteSpace=wrap;html=1;absoluteArcSize=1;arcSize=14;strokeWidth=2;" vertex="1" parent="1">
          <mxGeometry x="190" y="3930" width="570" height="330" as="geometry" />
        </mxCell>
        <mxCell id="vTDVaDkW4czHKNU96Y0x-602" value="node pools" style="rounded=1;whiteSpace=wrap;html=1;absoluteArcSize=1;arcSize=14;strokeWidth=2;" vertex="1" parent="1">
          <mxGeometry x="90" y="3930" width="100" height="40" as="geometry" />
        </mxCell>
        <mxCell id="vTDVaDkW4czHKNU96Y0x-603" value="jobs" style="rounded=1;whiteSpace=wrap;html=1;absoluteArcSize=1;arcSize=14;strokeWidth=2;" vertex="1" parent="1">
          <mxGeometry x="90" y="3970" width="100" height="40" as="geometry" />
        </mxCell>
        <UserObject label="template" link="http://test.damodel.net/login" id="vTDVaDkW4czHKNU96Y0x-604">
          <mxCell style="rounded=1;whiteSpace=wrap;html=1;absoluteArcSize=1;arcSize=14;strokeWidth=2;" vertex="1" parent="1">
            <mxGeometry x="90" y="4010" width="100" height="40" as="geometry" />
          </mxCell>
        </UserObject>
        <mxCell id="vTDVaDkW4czHKNU96Y0x-605" value="customerized template" style="rounded=1;whiteSpace=wrap;html=1;absoluteArcSize=1;arcSize=14;strokeWidth=2;" vertex="1" parent="1">
          <mxGeometry x="90" y="4050" width="100" height="40" as="geometry" />
        </mxCell>
        <mxCell id="vTDVaDkW4czHKNU96Y0x-606" value="action" style="html=1;whiteSpace=wrap;strokeWidth=0;" vertex="1" parent="1">
          <mxGeometry x="235" y="3940" width="70" height="20" as="geometry" />
        </mxCell>
        <mxCell id="vTDVaDkW4czHKNU96Y0x-607" value="dropdown list，用于选择各种动作" style="html=1;whiteSpace=wrap;strokeWidth=0;opacity=0;" vertex="1" parent="1">
          <mxGeometry x="460" y="3965" width="200" height="20" as="geometry" />
        </mxCell>
        <mxCell id="vTDVaDkW4czHKNU96Y0x-608" value="action" style="whiteSpace=wrap;html=1;align=center;" vertex="1" parent="1">
          <mxGeometry x="235" y="3990" width="70" height="20" as="geometry" />
        </mxCell>
        <mxCell id="vTDVaDkW4czHKNU96Y0x-609" value="" style="html=1;whiteSpace=wrap;" vertex="1" parent="1">
          <mxGeometry x="315" y="3990" width="185" height="20" as="geometry" />
        </mxCell>
        <mxCell id="vTDVaDkW4czHKNU96Y0x-610" value="create" style="html=1;whiteSpace=wrap;" vertex="1" parent="1">
          <mxGeometry x="440" y="4200" width="60" height="20" as="geometry" />
        </mxCell>
        <mxCell id="vTDVaDkW4czHKNU96Y0x-611" value="" style="endArrow=classic;html=1;rounded=0;exitX=0.25;exitY=1;exitDx=0;exitDy=0;entryX=1;entryY=0.25;entryDx=0;entryDy=0;dashed=1;" edge="1" parent="1" source="vTDVaDkW4czHKNU96Y0x-607">
          <mxGeometry width="50" height="50" relative="1" as="geometry">
            <mxPoint x="560" y="4050" as="sourcePoint" />
            <mxPoint x="500" y="4005" as="targetPoint" />
          </mxGeometry>
        </mxCell>
        <mxCell id="vTDVaDkW4czHKNU96Y0x-612" value="" style="verticalLabelPosition=bottom;verticalAlign=top;html=1;shadow=0;dashed=0;strokeWidth=1;shape=mxgraph.ios.iDeleteApp;fillColor=#cccccc;fillColor2=#000000;strokeColor=#ffffff;sketch=0;" vertex="1" parent="1">
          <mxGeometry x="510" y="3992.5" width="15" height="15" as="geometry" />
        </mxCell>
        <mxCell id="vTDVaDkW4czHKNU96Y0x-613" value="" style="verticalLabelPosition=bottom;verticalAlign=top;html=1;shadow=0;dashed=0;strokeWidth=1;shape=mxgraph.ios.iAddIcon;fillColor=#7AdF78;fillColor2=#1A9917;strokeColor=#ffffff;sketch=0;" vertex="1" parent="1">
          <mxGeometry x="485" y="4024.5" width="15" height="15" as="geometry" />
        </mxCell>
        <mxCell id="vTDVaDkW4czHKNU96Y0x-614" value="点击此处可以添加动作" style="text;html=1;align=center;verticalAlign=middle;whiteSpace=wrap;rounded=0;" vertex="1" parent="1">
          <mxGeometry x="515" y="4017" width="125" height="30" as="geometry" />
        </mxCell>
        <mxCell id="vTDVaDkW4czHKNU96Y0x-615" value="action" style="rounded=1;whiteSpace=wrap;html=1;absoluteArcSize=1;arcSize=14;strokeWidth=2;fillColor=#dae8fc;strokeColor=#6c8ebf;" vertex="1" parent="1">
          <mxGeometry x="90" y="4090" width="100" height="40" as="geometry" />
        </mxCell>
        <mxCell id="vTDVaDkW4czHKNU96Y0x-629" value="Assets" style="childLayout=tableLayout;recursiveResize=0;strokeColor=#98bf21;fillColor=#40c9a0;shadow=1;" vertex="1" parent="1">
          <mxGeometry x="230" y="3651" width="280" height="160" as="geometry" />
        </mxCell>
        <mxCell id="vTDVaDkW4czHKNU96Y0x-630" style="shape=tableRow;horizontal=0;startSize=0;swimlaneHead=0;swimlaneBody=0;top=0;left=0;bottom=0;right=0;dropTarget=0;collapsible=0;recursiveResize=0;expand=0;fontStyle=0;strokeColor=inherit;fillColor=#ffffff;" vertex="1" parent="vTDVaDkW4czHKNU96Y0x-629">
          <mxGeometry width="280" height="33" as="geometry" />
        </mxCell>
        <mxCell id="vTDVaDkW4czHKNU96Y0x-631" value="Title 1" style="connectable=0;recursiveResize=0;strokeColor=inherit;fillColor=#A7C942;align=center;fontStyle=1;fontColor=#FFFFFF;html=1;" vertex="1" parent="vTDVaDkW4czHKNU96Y0x-630">
          <mxGeometry width="93" height="33" as="geometry">
            <mxRectangle width="93" height="33" as="alternateBounds" />
          </mxGeometry>
        </mxCell>
        <mxCell id="vTDVaDkW4czHKNU96Y0x-632" value="Title 2" style="connectable=0;recursiveResize=0;strokeColor=inherit;fillColor=#A7C942;align=center;fontStyle=1;fontColor=#FFFFFF;html=1;" vertex="1" parent="vTDVaDkW4czHKNU96Y0x-630">
          <mxGeometry x="93" width="94" height="33" as="geometry">
            <mxRectangle width="94" height="33" as="alternateBounds" />
          </mxGeometry>
        </mxCell>
        <mxCell id="vTDVaDkW4czHKNU96Y0x-633" value="Title 3" style="connectable=0;recursiveResize=0;strokeColor=inherit;fillColor=#A7C942;align=center;fontStyle=1;fontColor=#FFFFFF;html=1;" vertex="1" parent="vTDVaDkW4czHKNU96Y0x-630">
          <mxGeometry x="187" width="93" height="33" as="geometry">
            <mxRectangle width="93" height="33" as="alternateBounds" />
          </mxGeometry>
        </mxCell>
        <mxCell id="vTDVaDkW4czHKNU96Y0x-634" value="" style="shape=tableRow;horizontal=0;startSize=0;swimlaneHead=0;swimlaneBody=0;top=0;left=0;bottom=0;right=0;dropTarget=0;collapsible=0;recursiveResize=0;expand=0;fontStyle=0;strokeColor=inherit;fillColor=#ffffff;" vertex="1" parent="vTDVaDkW4czHKNU96Y0x-629">
          <mxGeometry y="33" width="280" height="32" as="geometry" />
        </mxCell>
        <mxCell id="vTDVaDkW4czHKNU96Y0x-635" value="Value 1" style="connectable=0;recursiveResize=0;strokeColor=inherit;fillColor=inherit;align=center;whiteSpace=wrap;html=1;" vertex="1" parent="vTDVaDkW4czHKNU96Y0x-634">
          <mxGeometry width="93" height="32" as="geometry">
            <mxRectangle width="93" height="32" as="alternateBounds" />
          </mxGeometry>
        </mxCell>
        <mxCell id="vTDVaDkW4czHKNU96Y0x-636" value="Value 2" style="connectable=0;recursiveResize=0;strokeColor=inherit;fillColor=inherit;align=center;whiteSpace=wrap;html=1;" vertex="1" parent="vTDVaDkW4czHKNU96Y0x-634">
          <mxGeometry x="93" width="94" height="32" as="geometry">
            <mxRectangle width="94" height="32" as="alternateBounds" />
          </mxGeometry>
        </mxCell>
        <mxCell id="vTDVaDkW4czHKNU96Y0x-637" value="Value 3" style="connectable=0;recursiveResize=0;strokeColor=inherit;fillColor=inherit;align=center;whiteSpace=wrap;html=1;" vertex="1" parent="vTDVaDkW4czHKNU96Y0x-634">
          <mxGeometry x="187" width="93" height="32" as="geometry">
            <mxRectangle width="93" height="32" as="alternateBounds" />
          </mxGeometry>
        </mxCell>
        <mxCell id="vTDVaDkW4czHKNU96Y0x-638" value="" style="shape=tableRow;horizontal=0;startSize=0;swimlaneHead=0;swimlaneBody=0;top=0;left=0;bottom=0;right=0;dropTarget=0;collapsible=0;recursiveResize=0;expand=0;fontStyle=1;strokeColor=inherit;fillColor=#EAF2D3;" vertex="1" parent="vTDVaDkW4czHKNU96Y0x-629">
          <mxGeometry y="65" width="280" height="31" as="geometry" />
        </mxCell>
        <mxCell id="vTDVaDkW4czHKNU96Y0x-639" value="Value 4" style="connectable=0;recursiveResize=0;strokeColor=inherit;fillColor=inherit;whiteSpace=wrap;html=1;" vertex="1" parent="vTDVaDkW4czHKNU96Y0x-638">
          <mxGeometry width="93" height="31" as="geometry">
            <mxRectangle width="93" height="31" as="alternateBounds" />
          </mxGeometry>
        </mxCell>
        <mxCell id="vTDVaDkW4czHKNU96Y0x-640" value="Value 5" style="connectable=0;recursiveResize=0;strokeColor=inherit;fillColor=inherit;whiteSpace=wrap;html=1;" vertex="1" parent="vTDVaDkW4czHKNU96Y0x-638">
          <mxGeometry x="93" width="94" height="31" as="geometry">
            <mxRectangle width="94" height="31" as="alternateBounds" />
          </mxGeometry>
        </mxCell>
        <mxCell id="vTDVaDkW4czHKNU96Y0x-641" value="Value 6" style="connectable=0;recursiveResize=0;strokeColor=inherit;fillColor=inherit;whiteSpace=wrap;html=1;" vertex="1" parent="vTDVaDkW4czHKNU96Y0x-638">
          <mxGeometry x="187" width="93" height="31" as="geometry">
            <mxRectangle width="93" height="31" as="alternateBounds" />
          </mxGeometry>
        </mxCell>
        <mxCell id="vTDVaDkW4czHKNU96Y0x-642" value="" style="shape=tableRow;horizontal=0;startSize=0;swimlaneHead=0;swimlaneBody=0;top=0;left=0;bottom=0;right=0;dropTarget=0;collapsible=0;recursiveResize=0;expand=0;fontStyle=0;strokeColor=inherit;fillColor=#ffffff;" vertex="1" parent="vTDVaDkW4czHKNU96Y0x-629">
          <mxGeometry y="96" width="280" height="33" as="geometry" />
        </mxCell>
        <mxCell id="vTDVaDkW4czHKNU96Y0x-643" value="Value 7" style="connectable=0;recursiveResize=0;strokeColor=inherit;fillColor=inherit;fontStyle=0;align=center;whiteSpace=wrap;html=1;" vertex="1" parent="vTDVaDkW4czHKNU96Y0x-642">
          <mxGeometry width="93" height="33" as="geometry">
            <mxRectangle width="93" height="33" as="alternateBounds" />
          </mxGeometry>
        </mxCell>
        <mxCell id="vTDVaDkW4czHKNU96Y0x-644" value="Value 8" style="connectable=0;recursiveResize=0;strokeColor=inherit;fillColor=inherit;fontStyle=0;align=center;whiteSpace=wrap;html=1;" vertex="1" parent="vTDVaDkW4czHKNU96Y0x-642">
          <mxGeometry x="93" width="94" height="33" as="geometry">
            <mxRectangle width="94" height="33" as="alternateBounds" />
          </mxGeometry>
        </mxCell>
        <mxCell id="vTDVaDkW4czHKNU96Y0x-645" value="Value 9" style="connectable=0;recursiveResize=0;strokeColor=inherit;fillColor=inherit;fontStyle=0;align=center;whiteSpace=wrap;html=1;" vertex="1" parent="vTDVaDkW4czHKNU96Y0x-642">
          <mxGeometry x="187" width="93" height="33" as="geometry">
            <mxRectangle width="93" height="33" as="alternateBounds" />
          </mxGeometry>
        </mxCell>
        <mxCell id="vTDVaDkW4czHKNU96Y0x-646" value="" style="shape=tableRow;horizontal=0;startSize=0;swimlaneHead=0;swimlaneBody=0;top=0;left=0;bottom=0;right=0;dropTarget=0;collapsible=0;recursiveResize=0;expand=0;fontStyle=1;strokeColor=inherit;fillColor=#EAF2D3;" vertex="1" parent="vTDVaDkW4czHKNU96Y0x-629">
          <mxGeometry y="129" width="280" height="31" as="geometry" />
        </mxCell>
        <mxCell id="vTDVaDkW4czHKNU96Y0x-647" value="Value 10" style="connectable=0;recursiveResize=0;strokeColor=inherit;fillColor=inherit;whiteSpace=wrap;html=1;" vertex="1" parent="vTDVaDkW4czHKNU96Y0x-646">
          <mxGeometry width="93" height="31" as="geometry">
            <mxRectangle width="93" height="31" as="alternateBounds" />
          </mxGeometry>
        </mxCell>
        <mxCell id="vTDVaDkW4czHKNU96Y0x-648" value="Value 11" style="connectable=0;recursiveResize=0;strokeColor=inherit;fillColor=inherit;whiteSpace=wrap;html=1;" vertex="1" parent="vTDVaDkW4czHKNU96Y0x-646">
          <mxGeometry x="93" width="94" height="31" as="geometry">
            <mxRectangle width="94" height="31" as="alternateBounds" />
          </mxGeometry>
        </mxCell>
        <mxCell id="vTDVaDkW4czHKNU96Y0x-649" value="Value 12" style="connectable=0;recursiveResize=0;strokeColor=inherit;fillColor=inherit;whiteSpace=wrap;html=1;" vertex="1" parent="vTDVaDkW4czHKNU96Y0x-646">
          <mxGeometry x="187" width="93" height="31" as="geometry">
            <mxRectangle width="93" height="31" as="alternateBounds" />
          </mxGeometry>
        </mxCell>
      </root>
    </mxGraphModel>
  </diagram>
</mxfile>
